<svg xmlns="http://www.w3.org/2000/svg" width="228.773" height="74.954" viewBox="0 0 228.773 74.954">
  <g id="LOGO_QUARTO_DE_MILHA_Prancheta_1" data-name="LOGO QUARTO DE MILHA_Prancheta 1" transform="translate(-101.836 -190.3)">
    <path id="Caminho_388" data-name="Caminho 388" d="M166.418,221.758l2.353-1.154,1.779,1.923-.371-2.6,2.379-1.1-2.581-.449-.313-2.6L168.44,218.1l-2.57-.5,1.824,1.875Z" transform="translate(-40.492 -16.112)" fill="#fff"/>
    <path id="Caminho_389" data-name="Caminho 389" d="M185,244.25v.059a.155.155,0,0,1,0-.044Z" transform="translate(-52.586 -34.115)" fill="#27241f"/>
    <path id="Caminho_390" data-name="Caminho 390" d="M147.481,222.568l1.6-1.835,2.217,1.007-1.246-2.092,1.64-1.8-2.371.537-1.2-2.118-.221,2.43-2.39.489,2.243.956Z" transform="translate(-27.617 -16.422)" fill="#fff"/>
    <path id="Caminho_391" data-name="Caminho 391" d="M188.474,229.339l-1.07-2.184-2.4.39,1.75-1.691-1.114-2.165,2.154,1.14L189.5,223.1l-.423,2.4,2.176,1.1-2.412.335Z" transform="translate(-52.589 -20.741)" fill="#fff"/>
    <path id="Caminho_392" data-name="Caminho 392" d="M115.224,243.439a2.846,2.846,0,0,1-1.382-2.482,33.439,33.439,0,0,1-.548-4.088c0-.8-.713-1.7-1.206-2.743s-1.783-3.779-1.871-3.971-.669-.658-1.607-.235-2.007.1-2.276.235a7.3,7.3,0,0,1-1.7.522c-.445.048-.4.614-.713.805s-1.206-.335-1.206-.335-.445-.232-.533-.423-.088-.456-.268-.993c-.265-.8.224-.879.224-.879s.757-.695,1.026-.934a6.158,6.158,0,0,0,1.426-2.062c.044-.805.757-1.276,1.074-1.654.154-.191.507-.368.621-.665a1.1,1.1,0,0,0,0-.658c-.489-.368,0-1.938,0-1.938h.18a1.327,1.327,0,0,0,.176.662c.18.239.537,1.04.761.805s.625.044.625.044c-.368-.518.176-1.794.176-1.794h.18v.125a3.923,3.923,0,0,0,.18.9c.088.235.8,1.415.8,1.415a7.108,7.108,0,0,1,.985.625c.265.228.493.158.82.085.673-.14,5.621,2.746,7.9,5.375a3.525,3.525,0,0,0,2.86,1.415,21.262,21.262,0,0,1,3.257,1.324,15.3,15.3,0,0,0,5.577-.8c2.676-.993,4.779-1.838,7.9-.614a9.116,9.116,0,0,0,1.162.368,11.984,11.984,0,0,1,1.294.426s2.452-.331,4.015,3.169a16.783,16.783,0,0,1,1.294,9.971,3.309,3.309,0,0,0-.132-.945c-.136-.331-.805,2.206-1.074,2.647V245.2a13.6,13.6,0,0,0-.8,2.074,7.875,7.875,0,0,0-.18.949,8.519,8.519,0,0,1,.136-1.982c.18-.423-.4.754-.4.563s.044-1.368.044-1.7-.368.188-.312-2.033.4-3.875.048-5.434-.224-1.8-.224-1.8a8.267,8.267,0,0,1-.18,1.607,16.283,16.283,0,0,1-1.2,4.158c-.757,1.324-1.783,2.651-1.43,3.676a18.92,18.92,0,0,1,.893,2.6,1.346,1.346,0,0,0,.224.757,2.585,2.585,0,0,1,.313,1.937,9.975,9.975,0,0,0-.268,3.118c0,.912.044,3.452.044,3.64s0,.368-.18.474a.812.812,0,0,0-.309.471c-.048.143-.493.239-.493.57s.268.757.268.9-.4.423-.4.423a10.233,10.233,0,0,1-2.1,0,8.456,8.456,0,0,1,.761-1.18.541.541,0,0,1,.313-.471c.309-.143.445-.368.445-.9a2.481,2.481,0,0,1,.088-1.136,40.763,40.763,0,0,0,.048-4.588l-.136-.187s-.8,2.835-.849,3.357.136,1.276-.368,1.838a4.061,4.061,0,0,1-.893.805s-.221.331-.044.566.4.57.268.71a1.217,1.217,0,0,1-.445.235,5.644,5.644,0,0,1-1.919.1s.312-.8.4-.989a1.878,1.878,0,0,1,.493-.757c.309-.287.621-.239.621-.665s.224-.566.537-1.368a21.007,21.007,0,0,0,.625-3.779,18.555,18.555,0,0,1-.625-3.074V246.6a4.191,4.191,0,0,1-.805-1.8,8.166,8.166,0,0,0-1.871-3.07c-.312-.283-.493-.187-.846-.143s-.368-.14-.765-.327-2.048.754-2.761,1.276a21.97,21.97,0,0,1-7.452,1.963l-.18.018c-3.614.368-1.695.283-1.875.283a21.758,21.758,0,0,1,.493,2.6c.132,1.232.4,2.412.4,3.121a10.163,10.163,0,0,0,.088,2.173c.132.235.632,2.46.632,2.46s.706.71.529.993-.526.331-.529.805-.173,1.276,0,1.415.228.283,0,.331a1.772,1.772,0,0,0-.54.283s-.4.522-1.739.235a1.2,1.2,0,0,1,.368-.754,1.7,1.7,0,0,1,.621-.518c.268-.143.136-.368.312-.853s.268-.757.268-.757a1.176,1.176,0,0,1-.368-.757,21.429,21.429,0,0,0-.8-2.835,10.59,10.59,0,0,1-.982-2.268,36.358,36.358,0,0,0-1.21-3.779c-.265-.614-.309-.368-.309.092s-.522,1.941-.239,2.743a4.524,4.524,0,0,1,0,2.691,3.326,3.326,0,0,0-.254,1.658,14.505,14.505,0,0,0,.254,2.316c.1.331.342.614,0,.9a5.314,5.314,0,0,0-.61.614,3.382,3.382,0,0,0-.312,1.1c0,.136.4.368.268.471a5.384,5.384,0,0,0-.533.614,10.821,10.821,0,0,1-2.1-.048v-.187a7.34,7.34,0,0,1,1.1-1.371c.368-.239.287-.471.467-.754a3.76,3.76,0,0,0,.4-1.184,4.252,4.252,0,0,1,.048-.8c.044-.143-.132-2.647-.132-2.647a8.823,8.823,0,0,1-.449-2.551,4.209,4.209,0,0,0-.331-2.507,6.493,6.493,0,0,1-1.059-4.4Z" transform="translate(0 -19.198)" fill="#fff"/>
    <path id="Caminho_393" data-name="Caminho 393" d="M214.547,236.94c3.893,4.081,5.6,8.824,5.6,14.923A22.643,22.643,0,0,1,213,268.407l-.033.033c13.687-6.393,25.941-19.706,25.941-19.706C230.827,247.675,221.514,242.635,214.547,236.94Z" transform="translate(-70.276 -29.493)" fill="#fff"/>
    <path id="Caminho_394" data-name="Caminho 394" d="M321.288,190.3c.71,5.985,1.625,13.21-1.838,23.879l6.5-17.8C327.274,192.609,322.814,190.576,321.288,190.3Z" transform="translate(-137.609 0)" fill="#fff"/>
    <path id="Caminho_395" data-name="Caminho 395" d="M199.768,204.88c-10.566,7.974-41.754-3.559-54.823-2.574C132.86,203.222,128,210.56,128,210.56a.343.343,0,0,1,.044-.033,24.125,24.125,0,0,1,14.592-4.882c6.217,0,11.232,2.232,16.176,6.188a37.3,37.3,0,0,0,6.393,4.379c17.154,10.342,24.463,9.029,24.463,9.029A75.818,75.818,0,0,1,159.5,247.615c16.349,2.739,27.812-1.386,27.812-1.386l11.074-24.5.029-.059C199.816,216.222,200.518,208.773,199.768,204.88Z" transform="translate(-16.545 -7.554)" fill="#fff"/>
    <path id="Caminho_396" data-name="Caminho 396" d="M313.45,261.85Z" transform="translate(-133.815 -45.245)" fill="#009045"/>
    <path id="Caminho_397" data-name="Caminho 397" d="M313.45,261.85Z" transform="translate(-133.815 -45.245)" fill="#009045"/>
    <path id="Caminho_398" data-name="Caminho 398" d="M433.425,211.628c0-4.5,0-5.32-.066-6.25s-.239-1.471-1.228-1.6a9.949,9.949,0,0,0-1.022-.066.29.29,0,0,1-.239-.239c0-.173.136-.239.478-.239,1.364,0,3.169.066,3.441.066s2.151-.066,3.037-.066c.342,0,.511.066.511.239a.29.29,0,0,1-.272.239,3.6,3.6,0,0,0-.735.066c-.787.136-.956.651-1.022,1.6s-.07,1.739-.07,6.25v4.044c0,4.195.919,5.934,2.206,7.092a5.847,5.847,0,0,0,4.467,1.57,6.162,6.162,0,0,0,4.636-2.044c1.4-1.673,1.706-4.044,1.706-7.026v-3.647c0-4.5-.033-5.32-.07-6.25s-.2-1.471-1.191-1.6a9.956,9.956,0,0,0-1.026-.066.254.254,0,0,1-.235-.239c0-.173.136-.239.474-.239,1.331,0,3.07.066,3.243.066s1.636-.066,2.522-.066c.342,0,.478.066.478.239a.257.257,0,0,1-.239.239,3.6,3.6,0,0,0-.735.066c-.82.173-.989.651-1.059,1.6s-.033,1.739-.033,6.25v3.1c0,3.136-.408,6.647-2.8,8.695a9.075,9.075,0,0,1-6.272,2.114c-.989,0-4.125-.07-6.25-2.048-1.471-1.364-2.629-3.375-2.629-7.6Z" transform="translate(-208.066 -8.17)" fill="#fff"/>
    <path id="Caminho_399" data-name="Caminho 399" d="M499.529,202.915c.368-.956.511-1.125.735-1.125.305,0,.408.408.735,1.055.544,1.228,5.353,13.2,7.195,17.6,1.1,2.574,1.908,2.967,2.574,3.173a4.2,4.2,0,0,0,1.195.169c.169,0,.368.066.368.239s-.342.239-.68.239c-.445,0-2.662,0-4.743-.07-.577-.033-1.055-.033-1.055-.206s.066-.136.2-.2a.544.544,0,0,0,.276-.783l-2.695-6.651c-.07-.136-.1-.169-.272-.169h-6.956a.312.312,0,0,0-.305.235l-1.721,4.64a6.016,6.016,0,0,0-.445,1.945c0,.577.511.783,1.022.783h.276c.235,0,.305.1.305.239s-.169.239-.445.239c-.713,0-2.349-.1-2.691-.1s-1.809.1-3.037.1c-.368,0-.577-.07-.577-.239a.265.265,0,0,1,.272-.239,7.727,7.727,0,0,0,.886-.07c1.364-.169,1.945-1.191,2.522-2.658Zm3.342,12.07c.136,0,.136-.07.1-.206l-2.967-7.945c-.169-.441-.342-.441-.511,0l-2.8,7.945c-.033.136,0,.206.1.206Z" transform="translate(-244.692 -7.266)" fill="#fff"/>
    <path id="Caminho_400" data-name="Caminho 400" d="M556.3,211.647c0-4.5,0-5.32-.07-6.25-.066-.989-.239-1.471-1.228-1.6a9.951,9.951,0,0,0-1.022-.066.29.29,0,0,1-.239-.239c0-.173.136-.239.478-.239,1.364,0,3.375.066,3.548.066.305,0,2.827-.066,3.75-.066a9.824,9.824,0,0,1,5.592,1.261,5.084,5.084,0,0,1,2.081,3.956c0,2.147-.89,4.228-3.677,6.618,2.456,3.07,4.533,5.695,6.276,7.5,1.6,1.636,2.573,1.908,3.342,2.011a5.461,5.461,0,0,0,1.055.1.265.265,0,0,1,.272.239c0,.169-.169.239-.735.239h-1.875a6.065,6.065,0,0,1-3.206-.581c-1.294-.68-2.386-2.081-4.092-4.261-1.261-1.57-2.573-3.445-3.239-4.232a.456.456,0,0,0-.408-.169l-3.82-.066c-.136,0-.2.066-.2.235v.684c0,2.794,0,5.048.136,6.25.1.853.272,1.4,1.191,1.537a11.489,11.489,0,0,0,1.331.136.213.213,0,0,1,.239.239c0,.136-.136.239-.478.239-1.636,0-3.544-.1-3.677-.1-.033,0-2.044.1-2.963.1-.309,0-.478-.07-.478-.239a.232.232,0,0,1,.239-.239,4.411,4.411,0,0,0,.919-.136c.581-.136.647-.684.783-1.537a58.347,58.347,0,0,0,.173-6.272Zm2.574,2.452a.423.423,0,0,0,.2.368,10.163,10.163,0,0,0,3.309.445,3.889,3.889,0,0,0,2.25-.511c1.022-.684,1.809-2.206,1.809-4.434,0-3.614-1.978-5.695-5.184-5.695a12.892,12.892,0,0,0-2.151.173.367.367,0,0,0-.235.338Z" transform="translate(-285.763 -8.189)" fill="#fff"/>
    <path id="Caminho_401" data-name="Caminho 401" d="M614.714,216.072c0,2.794,0,5.081.136,6.272.1.853.239,1.4,1.158,1.537a11.905,11.905,0,0,0,1.364.136.213.213,0,0,1,.239.239c0,.136-.136.239-.478.239-1.636,0-3.544-.1-3.717-.1s-2.206.1-3.1.1c-.342,0-.478-.07-.478-.239a.21.21,0,0,1,.239-.206,3.9,3.9,0,0,0,.886-.136c.614-.136.787-.717.89-1.57.136-1.191.136-3.478.136-6.272V203.9l-4.331.066c-1.875.033-2.592.239-3.037.923a4.656,4.656,0,0,0-.478.919c-.066.239-.169.272-.305.272a.224.224,0,0,1-.206-.239c0-.305.614-2.9.647-3.136.07-.169.206-.544.309-.544a10.826,10.826,0,0,0,1.331.338c.853.1,2.011.136,2.353.136h11.305a14.674,14.674,0,0,0,2.147-.136c.445-.066.735-.136.853-.136s.136.173.136.342c0,.886-.1,2.967-.1,3.309,0,.239-.136.368-.272.368s-.206-.1-.239-.511l-.033-.309c-.1-.886-.735-1.533-3.614-1.6l-3.75-.066Z" transform="translate(-317.31 -7.5)" fill="#fff"/>
    <path id="Caminho_402" data-name="Caminho 402" d="M670.251,202.16c6.75,0,11.864,4.125,11.864,10.875a11.612,11.612,0,0,1-12.037,11.835c-8.217,0-11.728-6.173-11.728-11.4A11.477,11.477,0,0,1,670.251,202.16Zm.68,21.515c2.695,0,8.118-1.43,8.118-9.82,0-6.956-4.232-10.607-8.971-10.607-5.011,0-8.625,3.14-8.625,9.449C661.453,219.447,665.508,223.675,670.931,223.675Z" transform="translate(-351.914 -7.5)" fill="#fff"/>
    <path id="Caminho_403" data-name="Caminho 403" d="M354.514,292.918c0-3.187,0-3.768-.051-4.412s-.165-1.037-.868-1.136c-.169-.022-.529-.048-.735-.048a.2.2,0,0,1-.169-.169c0-.118.1-.169.338-.169.967,0,2.342.051,2.463.051.239,0,1.592-.051,2.849-.051,2.121,0,6.011-.191,8.522,2.342a7.224,7.224,0,0,1,2.074,5.217,8.213,8.213,0,0,1-2.294,5.768,8.526,8.526,0,0,1-6.445,2.364c-.915,0-2.051-.07-2.967-.118s-1.643-.121-1.739-.121-.434.022-.871.022-.941.048-1.279.048c-.217,0-.335-.048-.335-.165a.162.162,0,0,1,.165-.169,3.1,3.1,0,0,0,.654-.1c.408-.1.46-.482.555-1.085a41.676,41.676,0,0,0,.121-4.441Zm1.93,2.206c0,2.173,0,4.077.022,4.467a3.905,3.905,0,0,0,.243,1.471c.265.386,1.015.82,3.526.82a7.118,7.118,0,0,0,4.971-1.857,6.949,6.949,0,0,0,1.669-4.879A7.1,7.1,0,0,0,364.866,290c-2-2.007-4.342-2.276-6.879-2.276a5.834,5.834,0,0,0-1.279.143.368.368,0,0,0-.265.412Z" transform="translate(-158.628 -61.137)" fill="#fff"/>
    <path id="Caminho_404" data-name="Caminho 404" d="M405.064,292.633c0-3.187,0-3.768-.048-4.412s-.169-1.037-.871-1.136c-.169-.022-.529-.048-.735-.048a.206.206,0,0,1-.169-.169c0-.118.1-.169.338-.169.967,0,2.342.051,2.463.051s4.588.022,5.07,0c.412-.026.8-.1.967-.121a1.234,1.234,0,0,1,.29-.1c.07,0,.1.1.1.195a6.914,6.914,0,0,0-.169.963c-.026.195-.074,1.1-.121,1.353-.026.1-.1.217-.195.217s-.169-.1-.169-.265a2.272,2.272,0,0,0-.118-.735c-.147-.338-.368-.482-1.522-.629-.368-.048-2.824-.07-3.066-.07-.1,0-.121.07-.121.217v5.581c0,.143,0,.217.121.217.265,0,3.066,0,3.548-.048s.823-.074,1.04-.29c.143-.147.239-.265.313-.265s.121.048.121.169a10.737,10.737,0,0,0-.169,1.132c-.048.412-.1,1.184-.1,1.327s-.051.386-.195.386-.143-.07-.143-.191a1.772,1.772,0,0,0-.1-.676c-.07-.29-.265-.529-1.085-.629-.581-.07-2.849-.1-3.21-.1a.129.129,0,0,0-.147.143v1.724c0,.7-.022,3.088,0,3.5.048,1.375.438,1.64,2.537,1.64a7.089,7.089,0,0,0,2.125-.217,1.562,1.562,0,0,0,.963-1.423c.048-.243.1-.316.217-.316s.147.169.147.316a16.924,16.924,0,0,1-.29,1.978c-.143.533-.368.533-1.184.533-1.592,0-2.824-.051-3.677-.074s-1.448-.048-1.765-.048c-.048,0-.46,0-.915.022s-.893.048-1.232.048c-.217,0-.338-.048-.338-.165a.162.162,0,0,1,.169-.169,5.661,5.661,0,0,0,.651-.1c.412-.07.46-.482.555-1.085a41.7,41.7,0,0,0,.118-4.441Z" transform="translate(-190.594 -60.851)" fill="#fff"/>
    <path id="Caminho_405" data-name="Caminho 405" d="M485.585,286.374c.118,1.063.327,2.713,1.6,3.125a6.318,6.318,0,0,0,1.915.268c.147,0,.235.029.235.147,0,.176-.265.265-.618.265-.651,0-3.835-.088-4.926-.177-.68-.059-.827-.147-.827-.3s.063-.176.206-.206.18-.529.121-1.059l-1.415-15.22h-.092l-7.224,15.338c-.618,1.3-.71,1.563-.974,1.563-.206,0-.368-.294-.912-1.357-.768-1.445-3.309-6.548-3.452-6.842-.265-.533-3.57-7.61-3.893-8.408h-.118l-1.18,13.688c-.029.471-.029,1-.029,1.5a.949.949,0,0,0,.768.915,5.425,5.425,0,0,0,1.1.147c.118,0,.235.059.235.147,0,.206-.176.265-.533.265-1.1,0-2.507-.088-2.743-.088s-1.68.088-2.478.088c-.294,0-.5-.059-.5-.265,0-.088.147-.147.294-.147a3.807,3.807,0,0,0,.886-.088c.974-.18,1.063-1.327,1.18-2.448L464.332,268c.029-.323.147-.529.327-.529s.294.118.441.441l9.026,18.551,8.669-18.522c.118-.265.235-.471.445-.471s.294.235.368.794Z" transform="translate(-226.391 -48.799)" fill="#fff"/>
    <path id="Caminho_406" data-name="Caminho 406" d="M549.234,289.355c0,2.419,0,4.412.118,5.426.092.735.176,1.21.945,1.327a10.69,10.69,0,0,0,1.18.121.2.2,0,0,1,.206.206c0,.118-.118.206-.412.206-1.445,0-3.129-.088-3.246-.088s-1.768.088-2.573.088c-.265,0-.412-.059-.412-.206a.2.2,0,0,1,.206-.206,3.745,3.745,0,0,0,.8-.121c.5-.118.588-.588.676-1.327.121-1.029.147-3.007.147-5.426v-4.412c0-3.893,0-4.6-.059-5.4-.059-.857-.265-1.239-.823-1.357a4.658,4.658,0,0,0-.8-.088.221.221,0,0,1-.206-.206c0-.147.118-.206.412-.206.857,0,2.478.059,2.625.059s1.8-.059,2.6-.059c.3,0,.415.059.415.206a.25.25,0,0,1-.206.206,2.9,2.9,0,0,0-.651.059c-.71.147-.857.5-.915,1.386-.029.8-.029,1.5-.029,5.4Z" transform="translate(-280.224 -55.261)" fill="#fff"/>
    <path id="Caminho_407" data-name="Caminho 407" d="M575.88,289.389c0,3.676.063,5.191.533,5.636.412.412,1.416.588,3.452.588,1.353,0,2.5-.029,3.125-.765a3.089,3.089,0,0,0,.618-1.419c.029-.176.118-.324.268-.324s.176.118.176.368a15.43,15.43,0,0,1-.386,2.507c-.177.592-.265.68-1.651.68-1.838,0-3.309-.029-4.511-.088s-2.066-.059-2.831-.059c-.121,0-.563,0-1.063.029s-1.1.059-1.5.059c-.268,0-.415-.059-.415-.206a.2.2,0,0,1,.206-.206,3.707,3.707,0,0,0,.8-.121c.5-.118.563-.588.68-1.327a51.271,51.271,0,0,0,.147-5.426V284.9c0-3.893,0-4.6-.059-5.4-.059-.857-.206-1.268-1.063-1.386a8.387,8.387,0,0,0-.886-.059.25.25,0,0,1-.206-.206c0-.147.118-.206.412-.206,1.18,0,2.8.059,2.941.059s2.063-.059,2.86-.059c.265,0,.412.059.412.206,0,.088-.118.176-.206.176-.176,0-.562.029-.857.059-.765.147-.915.529-.974,1.415-.029.8-.029,1.5-.029,5.4Z" transform="translate(-296.873 -55.236)" fill="#fff"/>
    <path id="Caminho_408" data-name="Caminho 408" d="M629.868,289.343c0,2.419.029,4.412.147,5.426.088.735.147,1.21.945,1.327a10.266,10.266,0,0,0,1.151.121.21.21,0,0,1,.235.206c0,.118-.147.206-.441.206-1.415,0-3.07-.088-3.217-.088s-1.8.088-2.574.088c-.294,0-.412-.059-.412-.206a.2.2,0,0,1,.206-.206,3.519,3.519,0,0,0,.768-.121c.529-.118.618-.618.706-1.357.118-1.029.118-2.919.118-5.338v-2.507c0-.118-.059-.147-.147-.147H616.537c-.088,0-.147.029-.147.147V289.4c0,2.419,0,4.338.118,5.368.088.735.177,1.21.945,1.327a10.617,10.617,0,0,0,1.18.121.2.2,0,0,1,.206.206c0,.118-.118.206-.415.206-1.445,0-3.1-.088-3.213-.088s-1.8.088-2.6.088c-.265,0-.412-.059-.412-.206a.2.2,0,0,1,.206-.206,3.709,3.709,0,0,0,.794-.121c.5-.118.563-.588.68-1.327a51.272,51.272,0,0,0,.147-5.426v-4.412c0-3.893,0-4.6-.059-5.4-.059-.857-.206-1.268-1.062-1.386a8.328,8.328,0,0,0-.882-.059.25.25,0,0,1-.206-.206c0-.147.118-.206.412-.206,1.18,0,2.831.059,2.978.059s1.768-.059,2.574-.059c.294,0,.412.059.412.206a.25.25,0,0,1-.206.206,2.887,2.887,0,0,0-.647.059c-.71.147-.857.5-.915,1.386-.029.8-.029,1.563-.029,5.456v.522c0,.151.059.151.147.151h10.824c.088,0,.147,0,.147-.151v-.529c0-3.893-.029-4.658-.059-5.456-.059-.857-.176-1.268-1.033-1.386a8.319,8.319,0,0,0-.882-.059.221.221,0,0,1-.206-.206c0-.147.118-.206.412-.206,1.151,0,2.831.059,2.941.059s1.8-.059,2.573-.059c.294,0,.445.059.445.206a.257.257,0,0,1-.239.206,3.019,3.019,0,0,0-.647.059c-.68.147-.827.5-.886,1.386-.059.8-.059,1.5-.059,5.4Z" transform="translate(-322.49 -55.249)" fill="#fff"/>
    <path id="Caminho_409" data-name="Caminho 409" d="M678.156,277.324c.324-.827.441-.974.621-.974.265,0,.368.368.618.915.471,1.063,4.632,11.415,6.224,15.217.941,2.243,1.651,2.573,2.206,2.746a3.635,3.635,0,0,0,1.033.147c.147,0,.324.059.324.206s-.294.206-.588.206c-.368,0-2.3,0-4.1-.059-.5-.029-.915-.029-.915-.176s.059-.118.176-.176a.474.474,0,0,0,.239-.68l-2.331-5.75c-.059-.118-.088-.147-.235-.147h-5.985a.272.272,0,0,0-.265.206l-1.471,4.011a5.205,5.205,0,0,0-.368,1.68c0,.5.445.68.886.68h.213c.206,0,.265.088.265.206s-.147.206-.368.206c-.618,0-2.033-.088-2.327-.088s-1.566.088-2.629.088c-.323,0-.5-.059-.5-.206a.228.228,0,0,1,.235-.206,6.408,6.408,0,0,0,.768-.062c1.18-.147,1.68-1.029,2.184-2.3Zm2.89,10.441c.118,0,.118-.059.088-.176l-2.574-6.875q-.221-.574-.441,0l-2.419,6.875q-.044.176.088.176Z" transform="translate(-358.572 -54.414)" fill="#fff"/>
    <path id="Caminho_410" data-name="Caminho 410" d="M385.838,259.988,384,259.62A10.874,10.874,0,0,0,385.838,259.988Z" transform="translate(-178.427 -43.835)" fill="#211915"/>
    <path id="Caminho_411" data-name="Caminho 411" d="M382.755,206.377c0-8.629-5.695-13.037-11.2-13.037-5.812,0-10.107,4.176-10.107,11.257,0,8.585,5.7,13.033,11.2,13.033C378.424,217.63,382.755,213.454,382.755,206.377Z" transform="translate(-164.168 -1.922)" fill="none"/>
    <path id="Caminho_412" data-name="Caminho 412" d="M383.851,221.059a10.162,10.162,0,0,1-4.125.779c-2.967,0-6.754-2.169-9.952-5.265,6.437-1.585,10.732-7.581,10.732-13.033,0-6.577-5.463-12.61-13.426-12.61-8.312,0-14.129,7.077-14.129,13.423,0,6.537,5.309,12.5,13.154,12.647,0,0,1.912-.033,2.695.794,1.018,1.085,7.507,7.6,15.1,3.735C384.1,221.408,383.939,221.018,383.851,221.059Zm-16.588-4.952c-5.515,0-11.2-4.448-11.2-13.033,0-7.081,4.294-11.257,10.107-11.257,5.515,0,11.2,4.412,11.2,13.037.011,7.077-4.32,11.254-10.1,11.254Z" transform="translate(-158.793 -0.398)" fill="#fff"/>
    <path id="Caminho_413" data-name="Caminho 413" d="M397.128,270.137a9.558,9.558,0,0,0,1.526.114,11.071,11.071,0,0,0,6.5-2h0c-8.007,4.066-14.537-2.309-15.555-3.393-.779-.827-3.132-.794-3.132-.794,3.309,3,5.934,4.665,8.415,5.5A22.6,22.6,0,0,0,397.128,270.137Z" transform="translate(-179.989 -46.642)" fill="#fff"/>
    <line id="Linha_41" data-name="Linha 41" x2="228.334" transform="translate(101.94 249.149)" fill="none" stroke="#fff" stroke-miterlimit="10" stroke-width="1"/>
    <path id="Caminho_414" data-name="Caminho 414" d="M106.925,379.6a4.113,4.113,0,0,1-3.309-1.393,4.382,4.382,0,0,1,0-5.592,4.259,4.259,0,0,1,3.419-1.415,4.466,4.466,0,0,1,3.162,1.081,3.8,3.8,0,0,1,1.169,2.941,4.235,4.235,0,0,1-4.437,4.393Zm.452-.533a2.18,2.18,0,0,0,1.522-.57,3.732,3.732,0,0,0,.963-2.893,4.32,4.32,0,0,0-.912-2.853,2.79,2.79,0,0,0-2.228-1.037,2.408,2.408,0,0,0-1.779.673,3.662,3.662,0,0,0-.857,2.68,4.39,4.39,0,0,0,.879,2.831,2.908,2.908,0,0,0,2.412,1.169Z" transform="translate(-0.489 -114.393)" fill="#fff"/>
    <path id="Caminho_415" data-name="Caminho 415" d="M143.373,379.588a5.421,5.421,0,0,1-3.676-1.162,3.982,3.982,0,0,1-1.335-3.165,3.794,3.794,0,0,1,1.254-2.941,4.864,4.864,0,0,1,3.4-1.14,11.615,11.615,0,0,1,1.559.107c.25.051.61.11,1.074.184.11,0,.162.048.162.125a1.378,1.378,0,0,1-.026.184c-.018.129-.029.265-.04.408,0,.313-.022.7-.04,1.158,0,.162-.055.246-.129.246s-.107-.081-.107-.235a1.441,1.441,0,0,0-.419-.989,2.011,2.011,0,0,0-.846-.471,4.384,4.384,0,0,0-1.327-.191,2.882,2.882,0,0,0-2.015.662,3.584,3.584,0,0,0-.989,2.776,3.776,3.776,0,0,0,1.147,2.864,3.15,3.15,0,0,0,2.232.952,4.926,4.926,0,0,0,1.059-.085,1.61,1.61,0,0,0,.9-.515,1.419,1.419,0,0,0,.368-.706c.029-.143.077-.217.14-.217s.1.055.1.162a5.639,5.639,0,0,1-.074.621,8,8,0,0,1-.154.794.467.467,0,0,1-.287.32,5.483,5.483,0,0,1-1.926.254Z" transform="translate(-23.095 -114.38)" fill="#fff"/>
    <path id="Caminho_416" data-name="Caminho 416" d="M163.515,376.521h-2.39c-.044,0-.077.026-.1.085l-.577,1.533a2.085,2.085,0,0,0-.162.654q0,.331.43.331h.162c.107,0,.158.029.158.085s-.059.11-.18.11h-1.136c-.621.022-1.044.033-1.265.033-.136,0-.206-.037-.206-.11s.044-.085.129-.085a2.434,2.434,0,0,0,.335-.022.842.842,0,0,0,.555-.3,2.659,2.659,0,0,0,.368-.665l2.687-6.732c.114-.287.217-.43.3-.43s.169.118.268.346q.985,2.489,2.658,6.592c.3.706.614,1.1.941,1.165a2.047,2.047,0,0,0,.452.044c.092,0,.14.029.14.085s-.037.074-.107.088a2.265,2.265,0,0,1-.386.022c-.886,0-1.562,0-2.026-.022-.217,0-.324-.037-.324-.088s.051-.088.151-.1.147-.118.1-.246l-.857-2.272a.11.11,0,0,0-.118-.107Zm-2.176-.537h1.967q.077,0,.055-.066l-.963-2.647c0-.062-.033-.1-.055-.1s-.051.033-.062.1l-.989,2.64c-.011.062,0,.088.048.088Z" transform="translate(-35.673 -114.273)" fill="#fff"/>
    <path id="Caminho_417" data-name="Caminho 417" d="M182.933,379.209l-2.7-6.552a1.728,1.728,0,0,0-.368-.588,1.1,1.1,0,0,0-.46-.224,1.62,1.62,0,0,0-.419-.044c-.085,0-.129-.033-.129-.1s.1-.1.279-.1h2.871c.2,0,.246.029.246.1s-.051.1-.158.1a.82.82,0,0,0-.419.074.265.265,0,0,0-.107.228,3.349,3.349,0,0,0,.246.824l1.838,4.868h.044q.923-2.316,2.11-5.338a1.317,1.317,0,0,0,.1-.4.2.2,0,0,0-.151-.21,1.392,1.392,0,0,0-.419-.048c-.121,0-.18-.029-.18-.085s.1-.107.3-.107h2.132c.121,0,.228.029.228.1s-.059.1-.173.1a.948.948,0,0,0-.526.129,2.392,2.392,0,0,0-.6.963c-.228.529-.654,1.5-1.276,2.9l-1.426,3.272c-.158.368-.254.559-.29.632a.294.294,0,0,1-.2.158c-.07,0-.125-.044-.184-.14S183.047,379.474,182.933,379.209Z" transform="translate(-48.706 -114.652)" fill="#fff"/>
    <path id="Caminho_418" data-name="Caminho 418" d="M205.031,376.521h-2.39c-.044,0-.074.026-.1.085l-.581,1.533a2.055,2.055,0,0,0-.158.654c0,.221.14.331.426.331h.162c.107,0,.162.029.162.085s-.062.11-.184.11h-1.136c-.621.022-1.044.033-1.265.033-.136,0-.2-.037-.2-.11s.04-.085.129-.085a2.428,2.428,0,0,0,.331-.022.849.849,0,0,0,.559-.3,2.573,2.573,0,0,0,.368-.665l2.688-6.732c.118-.287.217-.43.3-.43s.169.118.268.346q.989,2.489,2.658,6.592c.3.706.614,1.1.945,1.165a2.014,2.014,0,0,0,.449.044c.092,0,.14.029.14.085s-.037.074-.107.088a2.265,2.265,0,0,1-.386.022c-.886,0-1.562,0-2.026-.022-.217,0-.324-.037-.324-.088s.051-.088.151-.1.147-.118.1-.246l-.857-2.272a.107.107,0,0,0-.121-.107Zm-2.176-.537h1.974c.048,0,.066-.022.051-.066l-.963-2.647c0-.062-.033-.1-.055-.1s-.048.033-.062.1l-.985,2.64c-.018.062,0,.088.04.088Z" transform="translate(-61.929 -114.273)" fill="#fff"/>
    <path id="Caminho_419" data-name="Caminho 419" d="M226.389,374.66v1.886c0,.809,0,1.338.033,1.6.029.386.092.625.195.71a2.226,2.226,0,0,0,1.294.235c.684,0,1.07-.1,1.254-.3a1.1,1.1,0,0,0,.279-.643c0-.107.055-.158.118-.158s.088.059.088.18a4.7,4.7,0,0,1-.162,1.235.338.338,0,0,1-.257.265,2.2,2.2,0,0,1-.419.022c-.57,0-1.173,0-1.809-.029s-1.074-.033-1.309-.033h-1.342c-.147,0-.217-.037-.217-.11s.081-.081.235-.1l.324-.033c.165-.033.268-.232.309-.588q.055-.419.055-2.283v-1.886q0-1.919-.022-2.272a.636.636,0,0,0-.235-.537,1.17,1.17,0,0,0-.577-.107c-.121,0-.184-.033-.184-.1s.077-.1.235-.1H227.2c.151,0,.224.029.224.1s-.062.1-.191.1a2.364,2.364,0,0,0-.419.033c-.243.04-.368.246-.4.61Q226.389,372.741,226.389,374.66Z" transform="translate(-77.276 -114.595)" fill="#fff"/>
    <path id="Caminho_420" data-name="Caminho 420" d="M245.575,379.59a4.113,4.113,0,0,1-3.309-1.393,4.382,4.382,0,0,1,0-5.592,4.259,4.259,0,0,1,3.419-1.415,4.478,4.478,0,0,1,3.162,1.081,3.8,3.8,0,0,1,1.169,2.941,4.243,4.243,0,0,1-4.441,4.379Zm.449-.533a2.18,2.18,0,0,0,1.522-.57,3.733,3.733,0,0,0,.967-2.893,4.32,4.32,0,0,0-.912-2.853,2.8,2.8,0,0,0-2.232-1.037,2.415,2.415,0,0,0-1.779.673,3.688,3.688,0,0,0-.857,2.68,4.412,4.412,0,0,0,.879,2.831A2.908,2.908,0,0,0,246.024,379.057Z" transform="translate(-88.164 -114.382)" fill="#fff"/>
    <path id="Caminho_421" data-name="Caminho 421" d="M276.815,378.235l1.059-6.985c.029-.184.092-.279.184-.279s.184.114.29.335l2.941,6.044,2.915-6.121c.077-.169.154-.257.235-.257s.154.114.191.335l.974,6.618a3.1,3.1,0,0,0,.184.772.552.552,0,0,0,.342.312,2.361,2.361,0,0,0,.665.107c.114,0,.173.026.173.074s-.1.121-.279.121q-1.36,0-2.176-.066c-.206,0-.309-.055-.309-.118s.037-.088.11-.118.1-.184.059-.46l-.643-4.717h-.04l-2.353,4.871c-.191.4-.323.6-.4.6s-.188-.18-.368-.54q-1.015-1.941-1.232-2.437l-1.1-2.382h-.044l-.555,4.265a3.814,3.814,0,0,0-.033.5q0,.268.32.342a2,2,0,0,0,.452.055c.107,0,.158.026.158.074s-.085.121-.257.121h-2.184c-.129,0-.195-.04-.195-.121s.059-.074.173-.074a1.473,1.473,0,0,0,.32-.033C276.591,379.04,276.735,378.757,276.815,378.235Z" transform="translate(-110.07 -114.247)" fill="#fff"/>
    <path id="Caminho_422" data-name="Caminho 422" d="M309.27,376.489h-2.39c-.044,0-.077.026-.1.085l-.562,1.548a2.082,2.082,0,0,0-.162.654q0,.331.43.331h.162c.107,0,.158.029.158.085s-.059.11-.18.11h-1.136c-.621.022-1.044.033-1.265.033-.136,0-.206-.037-.206-.11s.044-.085.129-.085a2.424,2.424,0,0,0,.335-.022.842.842,0,0,0,.555-.3,2.66,2.66,0,0,0,.368-.665l2.651-6.765c.114-.287.217-.43.3-.43s.169.118.268.346q.989,2.489,2.658,6.592c.3.706.614,1.1.941,1.165a2.048,2.048,0,0,0,.452.044c.092,0,.14.029.14.085s-.037.073-.107.088a2.269,2.269,0,0,1-.386.022c-.886,0-1.562,0-2.026-.022-.217,0-.324-.037-.324-.088s.051-.088.151-.1.147-.118.1-.246l-.857-2.272A.11.11,0,0,0,309.27,376.489Zm-2.177-.537h1.971q.077,0,.055-.066l-.963-2.647c0-.063-.033-.1-.055-.1s-.051.033-.062.1l-.989,2.64c-.015.063,0,.088.044.088Z" transform="translate(-127.852 -114.241)" fill="#fff"/>
    <path id="Caminho_423" data-name="Caminho 423" d="M329.375,376.6v-1.886q0-1.919-.022-2.272c-.022-.342-.143-.544-.368-.6a1.577,1.577,0,0,0-.368-.044c-.125,0-.188-.037-.188-.107s.088-.085.257-.085h2.7c.151,0,.224.026.224.085s-.051.107-.154.107a1.8,1.8,0,0,0-.331.033c-.243.04-.368.246-.393.61q-.022.368-.022,2.272V376.6q0,1.919.044,2.349c.026.312.169.489.423.522a3.9,3.9,0,0,0,.544.044c.11,0,.169.029.169.085s-.07.11-.206.11h-3.011c-.147,0-.213-.037-.213-.11s.077-.081.235-.1.217-.026.324-.033q.254-.048.309-.529C329.375,378.628,329.375,377.845,329.375,376.6Z" transform="translate(-143.287 -114.652)" fill="#fff"/>
    <path id="Caminho_424" data-name="Caminho 424" d="M343.795,379.577a3.865,3.865,0,0,1-1.566-.279.368.368,0,0,1-.2-.368c0-.386.018-.853.051-1.4,0-.188.059-.279.129-.279s.107.059.107.18a1.9,1.9,0,0,0,.1.548,1.434,1.434,0,0,0,1.533,1.081,1.5,1.5,0,0,0,1.081-.393,1.139,1.139,0,0,0,.368-.827,2.259,2.259,0,0,0-1.048-1.713l-.493-.382a3.391,3.391,0,0,1-1.585-2.54,1.8,1.8,0,0,1,.687-1.471,2.7,2.7,0,0,1,1.787-.566,5.852,5.852,0,0,1,1.427.18c.1.029.151.073.151.129,0,0,0,.114-.022.368s-.022.57-.022.9c0,.217-.037.324-.118.324s-.107-.066-.107-.195a1.128,1.128,0,0,0-.279-.706,1.412,1.412,0,0,0-1.165-.526,1.36,1.36,0,0,0-.934.305,1.018,1.018,0,0,0-.342.8,1.2,1.2,0,0,0,.239.713,4.353,4.353,0,0,0,.9.831l.3.224a5.585,5.585,0,0,1,1.36,1.346,2.515,2.515,0,0,1,.4,1.39,2.1,2.1,0,0,1-1.007,1.864A3.081,3.081,0,0,1,343.795,379.577Z" transform="translate(-151.884 -114.369)" fill="#fff"/>
    <path id="Caminho_425" data-name="Caminho 425" d="M367.547,379.209l-2.7-6.552a1.731,1.731,0,0,0-.368-.588,1.1,1.1,0,0,0-.46-.224,1.62,1.62,0,0,0-.419-.044c-.085,0-.129-.033-.129-.1s.092-.1.279-.1h2.871c.2,0,.246.029.246.1s-.051.1-.158.1a.82.82,0,0,0-.419.074.254.254,0,0,0-.107.228,3.349,3.349,0,0,0,.246.824l1.838,4.868h.044q.923-2.316,2.11-5.338a1.281,1.281,0,0,0,.1-.4.2.2,0,0,0-.147-.21,1.426,1.426,0,0,0-.419-.048c-.121,0-.184-.029-.184-.085s.1-.107.3-.107H372.2c.121,0,.224.029.224.1s-.055.1-.169.1a.941.941,0,0,0-.526.129,2.393,2.393,0,0,0-.6.963c-.232.529-.654,1.5-1.276,2.9l-1.412,3.272c-.158.368-.254.559-.29.632a.294.294,0,0,1-.2.158c-.07,0-.125-.044-.184-.14S367.661,379.474,367.547,379.209Z" transform="translate(-165.445 -114.652)" fill="#fff"/>
    <path id="Caminho_426" data-name="Caminho 426" d="M389.141,376.419v-1.886q0-1.919-.022-2.272a.577.577,0,0,0-.46-.61,2.042,2.042,0,0,0-.419-.033c-.121,0-.18-.033-.18-.1s.077-.1.235-.1h4.224a2.676,2.676,0,0,0,.46-.062l.173-.044c.04,0,.063.033.063.1a.822.822,0,0,1-.033.195,2.924,2.924,0,0,0-.048.5c-.011.195-.029.43-.059.706a.105.105,0,0,1-.107.118c-.055,0-.081-.037-.092-.118s-.022-.151-.029-.224a.735.735,0,0,0-.04-.191c-.088-.21-.327-.338-.735-.386-.246-.029-.754-.044-1.529-.044-.051,0-.073.037-.073.107v2.713c0,.077.022.118.073.118.982,0,1.559,0,1.724-.022a1.882,1.882,0,0,0,.279-.033.437.437,0,0,0,.235-.129c.085-.092.143-.14.173-.14a.083.083,0,0,1,.074.088.77.77,0,0,1-.029.213,5.166,5.166,0,0,0-.055.57q-.044.607-.044.717c0,.136-.033.2-.1.2s-.1-.037-.1-.11a2.5,2.5,0,0,0-.044-.368c-.059-.243-.257-.368-.6-.419-.2-.018-.71-.029-1.529-.029-.044,0-.062.033-.062.107v2.507a.893.893,0,0,0,.25.735,2.074,2.074,0,0,0,1.04.165,2.751,2.751,0,0,0,1.011-.129.981.981,0,0,0,.485-.794c0-.107.059-.162.118-.162s.085.066.085.195a4.779,4.779,0,0,1-.14,1.188c-.037.129-.085.21-.151.239a1.409,1.409,0,0,1-.426.04c-.621,0-1.243,0-1.857-.029s-.985-.033-1.1-.033h-1.342c-.151,0-.213-.037-.213-.11s.077-.081.235-.1l.312.015c.165-.033.268-.232.313-.588Q389.141,378.283,389.141,376.419Z" transform="translate(-180.995 -114.469)" fill="#fff"/>
    <path id="Caminho_427" data-name="Caminho 427" d="M407.565,376.59V374.7q0-1.919-.022-2.272a.584.584,0,0,0-.463-.61,2.028,2.028,0,0,0-.415-.033c-.121,0-.184-.033-.184-.1s.081-.1.235-.1h2.971a3.478,3.478,0,0,1,1.971.46,1.558,1.558,0,0,1,.471.548,1.735,1.735,0,0,1,.257.919,3.172,3.172,0,0,1-1.412,2.4c.776.989,1.206,1.522,1.283,1.61q.621.779,1.04,1.21a2.306,2.306,0,0,0,1.2.735l.246.022c.121,0,.18.048.18.1s-.066.11-.2.11H413.7a2.482,2.482,0,0,1-1.147-.206,5.638,5.638,0,0,1-1.471-1.574q-.463-.658-1.062-1.471a.247.247,0,0,0-.191-.073h-.919a.073.073,0,0,0-.084.085v.151a22.072,22.072,0,0,0,.051,2.276c.052.313.184.559.419.585a4.029,4.029,0,0,0,.526.044c.085,0,.129.029.129.085s-.074.11-.217.11h-2.879c-.162,0-.213-.037-.213-.11s.077-.081.235-.1l.32-.033c.165-.033.268-.232.313-.588Q407.565,378.454,407.565,376.59Zm1.265-4.3v3.257c0,.107.029.173.1.195a2.525,2.525,0,0,0,.813.107,1.272,1.272,0,0,0,.761-.184,1.851,1.851,0,0,0,.632-1.607,2.018,2.018,0,0,0-.577-1.555,1.9,1.9,0,0,0-1.673-.342A.136.136,0,0,0,408.829,372.292Z" transform="translate(-192.643 -114.639)" fill="#fff"/>
    <path id="Caminho_428" data-name="Caminho 428" d="M431.045,379.57a3.865,3.865,0,0,1-1.566-.279.368.368,0,0,1-.2-.368c0-.386.018-.853.052-1.4,0-.187.059-.279.129-.279s.11.059.11.18a1.886,1.886,0,0,0,.1.548,1.434,1.434,0,0,0,1.533,1.081,1.5,1.5,0,0,0,1.081-.393,1.139,1.139,0,0,0,.368-.827,2.259,2.259,0,0,0-1.048-1.713l-.493-.386a3.39,3.39,0,0,1-1.588-2.54,1.8,1.8,0,0,1,.688-1.471,2.7,2.7,0,0,1,1.787-.566,5.859,5.859,0,0,1,1.426.18c.1.029.151.074.151.129,0,0,0,.114-.022.368s-.022.57-.022.9c0,.217-.037.324-.118.324s-.107-.066-.107-.195a1.129,1.129,0,0,0-.279-.706,1.4,1.4,0,0,0-1.165-.526,1.36,1.36,0,0,0-.934.305,1.018,1.018,0,0,0-.342.8,1.221,1.221,0,0,0,.239.713,4.353,4.353,0,0,0,.9.831l.3.224a5.584,5.584,0,0,1,1.36,1.346,2.515,2.515,0,0,1,.4,1.39,2.1,2.1,0,0,1-1.007,1.864A3.08,3.08,0,0,1,431.045,379.57Z" transform="translate(-207.057 -114.362)" fill="#fff"/>
    <path id="Caminho_429" data-name="Caminho 429" d="M447.045,372.613h-2.39c-.044,0-.077.026-.1.085l-.577,1.533a2.081,2.081,0,0,0-.162.654q0,.331.43.331h.162c.107,0,.158.029.158.085s-.059.11-.18.11h-1.136c-.621.022-1.044.033-1.265.033-.136,0-.206-.037-.206-.11s.044-.085.129-.085a2.477,2.477,0,0,0,.335-.022.842.842,0,0,0,.555-.3,2.573,2.573,0,0,0,.368-.665l2.691-6.732c.114-.287.217-.43.3-.43s.165.118.268.346q.989,2.489,2.658,6.592c.3.706.614,1.1.941,1.166a2.048,2.048,0,0,0,.452.044c.092,0,.14.029.14.085s-.037.074-.11.088a2.21,2.21,0,0,1-.386.022c-.886,0-1.559,0-2.026-.022q-.32,0-.32-.088c0-.055.051-.088.151-.1s.147-.118.1-.246l-.857-2.272a.11.11,0,0,0-.121-.107Zm-2.176-.537h1.971q.077,0,.055-.066l-.963-2.647c0-.063-.033-.1-.055-.1s-.051.033-.062.1l-.989,2.64c-.022.063,0,.088.044.088Zm2.809-7.11.074.132s.081.169.235.5c.029.059.033.1,0,.129s-.029.033-.063.033h-.368a5.176,5.176,0,0,0-1.838.632.987.987,0,0,1-.184.085.055.055,0,0,1-.062-.062c0-.029.033-.077.1-.14a11.766,11.766,0,0,1,1.728-1.353.5.5,0,0,1,.213-.1.273.273,0,0,1,.169.151Z" transform="translate(-214.965 -110.365)" fill="#fff"/>
    <path id="Caminho_430" data-name="Caminho 430" d="M467.493,376.331v-4.393l-1.6.044c-.566,0-.912.118-1.04.309a1.151,1.151,0,0,0-.18.368c-.022.085-.062.129-.118.129s-.1-.055-.1-.173a7.069,7.069,0,0,1,.228-1.232c.033-.136.077-.2.129-.2a.674.674,0,0,1,.169.059.986.986,0,0,0,.29.07c.386.037.735.051,1.07.051h4.246a4.892,4.892,0,0,0,.735-.048l.29-.048c.055,0,.085.074.085.224v.6c0,.327-.022.544-.029.651s-.033.158-.085.158-.1-.07-.118-.213v-.118c-.037-.368-.456-.581-1.265-.6l-1.349-.033v4.393c0,1.217.018,1.978.051,2.294s.184.544.419.577a3.928,3.928,0,0,0,.548.044c.114,0,.169.029.169.085s-.066.11-.2.11H466.82c-.147,0-.213-.037-.213-.11s.077-.081.235-.1l.32-.033c.165-.033.268-.232.313-.588S467.493,377.54,467.493,376.331Z" transform="translate(-229.307 -114.38)" fill="#fff"/>
    <path id="Caminho_431" data-name="Caminho 431" d="M487.885,376.6v-1.886q0-1.919-.022-2.272c-.022-.342-.143-.544-.368-.6a1.577,1.577,0,0,0-.368-.044c-.125,0-.187-.037-.187-.107s.085-.085.257-.085h2.7c.151,0,.224.026.224.085s-.051.107-.154.107a1.873,1.873,0,0,0-.335.033c-.239.04-.368.246-.39.61q-.022.368-.022,2.272V376.6q0,1.919.044,2.349c.026.312.169.489.423.522a3.89,3.89,0,0,0,.54.044c.114,0,.173.029.173.085s-.07.11-.206.11h-3.011c-.147,0-.213-.037-.213-.11s.077-.081.235-.1l.32-.033c.173-.033.276-.21.313-.529S487.885,377.845,487.885,376.6Z" transform="translate(-243.522 -114.652)" fill="#fff"/>
    <path id="Caminho_432" data-name="Caminho 432" d="M502.283,374.66v1.886c0,.809,0,1.338.029,1.6a1.165,1.165,0,0,0,.195.71,2.233,2.233,0,0,0,1.3.235c.687,0,1.066-.1,1.254-.3a1.1,1.1,0,0,0,.276-.643c0-.107.055-.158.121-.158s.085.059.085.18a4.7,4.7,0,0,1-.162,1.235.338.338,0,0,1-.257.265,2.138,2.138,0,0,1-.415.022c-.574,0-1.176,0-1.812-.029s-1.074-.033-1.309-.033h-1.342c-.151,0-.217-.037-.217-.11s.081-.081.239-.1l.32-.033c.165-.033.268-.232.313-.588q.048-.419.051-2.283v-1.886q0-1.919-.022-2.272a.636.636,0,0,0-.235-.537,1.158,1.158,0,0,0-.577-.107c-.121,0-.184-.033-.184-.1s.081-.1.235-.1h2.926c.151,0,.228.029.228.1s-.066.1-.195.1a2.363,2.363,0,0,0-.419.033c-.243.04-.368.246-.4.61Q502.286,372.741,502.283,374.66Z" transform="translate(-251.736 -114.595)" fill="#fff"/>
    <path id="Caminho_433" data-name="Caminho 433" d="M527.232,376.6v-4.158a.585.585,0,0,0-.463-.61,2.025,2.025,0,0,0-.416-.033c-.121,0-.184-.033-.184-.1s.077-.1.235-.1H529.6a12.321,12.321,0,0,1,2.206.147,3.894,3.894,0,0,1,2.092,1.073,3.78,3.78,0,0,1,1.04,2.721,4.1,4.1,0,0,1-1.169,2.993,4.84,4.84,0,0,1-3.592,1.265c-.279,0-.687-.022-1.232-.066s-.893-.062-1.051-.062h-1.338c-.147,0-.213-.037-.213-.11s.077-.081.235-.1l.32-.033c.165-.033.268-.232.312-.588C527.21,378.6,527.232,377.84,527.232,376.6Zm1.342-2.059v1.353c0,1.129,0,1.838.022,2.165a2.252,2.252,0,0,0,.117.812c.2.287.666.43,1.4.43a3.677,3.677,0,0,0,2.471-.772,3.382,3.382,0,0,0,.893-2.669,3.533,3.533,0,0,0-1.029-2.68,4.235,4.235,0,0,0-3.037-1.062,2.125,2.125,0,0,0-.68.063.228.228,0,0,0-.143.224C528.578,372.718,528.574,373.431,528.574,374.538Z" transform="translate(-268.329 -114.646)" fill="#fff"/>
    <path id="Caminho_434" data-name="Caminho 434" d="M557.5,379.6a4.113,4.113,0,0,1-3.309-1.393,4.382,4.382,0,0,1,0-5.592,4.259,4.259,0,0,1,3.419-1.415,4.5,4.5,0,0,1,3.162,1.081,3.8,3.8,0,0,1,1.169,2.941,4.243,4.243,0,0,1-4.437,4.393Zm.452-.533a2.18,2.18,0,0,0,1.522-.57,3.746,3.746,0,0,0,.963-2.893,4.32,4.32,0,0,0-.912-2.853,2.79,2.79,0,0,0-2.228-1.037,2.408,2.408,0,0,0-1.779.673,3.662,3.662,0,0,0-.856,2.68,4.389,4.389,0,0,0,.879,2.831,2.9,2.9,0,0,0,2.412,1.169Z" transform="translate(-285.408 -114.393)" fill="#fff"/>
    <path id="Caminho_435" data-name="Caminho 435" d="M588.7,378.235l1.063-6.985c.029-.184.088-.279.18-.279s.184.114.29.335l2.941,6.044,2.916-6.121c.077-.169.154-.257.235-.257s.158.114.191.335l.978,6.618a2.98,2.98,0,0,0,.18.772.559.559,0,0,0,.346.312,2.34,2.34,0,0,0,.662.107c.114,0,.173.026.173.074s-.092.121-.279.121q-1.364,0-2.177-.066c-.206,0-.309-.055-.309-.118s.037-.088.11-.118.1-.184.059-.46l-.643-4.717h-.044l-2.349,4.871c-.191.4-.324.6-.393.6s-.191-.18-.368-.54q-1.015-1.941-1.232-2.437l-1.1-2.382h-.07l-.555,4.265a3.83,3.83,0,0,0-.033.5c0,.18.107.294.323.342a1.943,1.943,0,0,0,.449.055c.107,0,.162.026.162.074s-.088.121-.257.121h-2.188c-.129,0-.191-.04-.191-.121s.055-.074.169-.074a1.535,1.535,0,0,0,.324-.033C588.479,379.04,588.626,378.757,588.7,378.235Z" transform="translate(-307.282 -114.247)" fill="#fff"/>
    <path id="Caminho_436" data-name="Caminho 436" d="M619.441,376.283v-1.566q0-1.919-.022-2.272a.584.584,0,0,0-.459-.61,2.045,2.045,0,0,0-.419-.033c-.121,0-.18-.033-.18-.1s.077-.1.235-.1h2.882c.136,0,.235.029.235.1s-.059.1-.173.1a1.77,1.77,0,0,0-.309.033c-.243.044-.368.246-.4.61q-.022.368-.022,2.276v1.5a3.315,3.315,0,0,0,.835,2.64,2.048,2.048,0,0,0,1.342.441,2,2,0,0,0,1.471-.581,2.11,2.11,0,0,0,.537-1.136,10.111,10.111,0,0,0,.085-1.526V374.72q0-1.919-.022-2.276a.577.577,0,0,0-.46-.61,1.837,1.837,0,0,0-.386-.033c-.121,0-.18-.033-.18-.1s.074-.1.224-.1c.313,0,.735,0,1.232.029h1.239c.18,0,.228.029.228.1s-.066.1-.195.1a1.768,1.768,0,0,0-.309.033c-.246.04-.368.246-.4.61q-.022.368-.022,2.272v1.147a7.417,7.417,0,0,1-.173,1.768,2.74,2.74,0,0,1-.846,1.471,3.309,3.309,0,0,1-2.228.772,3.449,3.449,0,0,1-2.382-.735A3.8,3.8,0,0,1,619.441,376.283Z" transform="translate(-326.626 -114.652)" fill="#fff"/>
    <path id="Caminho_437" data-name="Caminho 437" d="M645.728,373.431l.118,4.5q.033,1.07.368,1.191c.022,0,.162.022.419.051s.32.066.32.107-.081.11-.246.11h-2.471c-.158,0-.235-.037-.235-.11s.092-.081.279-.1l.368-.044a.412.412,0,0,0,.268-.342,6.584,6.584,0,0,0,.063-.985l.1-6.346c0-.243.055-.368.14-.368s.191.11.4.331q.879.945,3.309,3.441l2.357,2.445h.077l-.107-4.812a3.429,3.429,0,0,0-.044-.547.574.574,0,0,0-.32-.416,1.7,1.7,0,0,0-.57-.066c-.114,0-.173-.033-.173-.1s.1-.1.279-.1h2.342c.209,0,.246.029.246.1s-.066.1-.195.1c-.368,0-.574.118-.654.368a2.888,2.888,0,0,0-.062.592l-.118,6.761c0,.221-.055.335-.14.335s-.2-.081-.368-.239q-1.029-1.015-3.162-3.151-.735-.717-1.64-1.7l-.912-1Z" transform="translate(-342.839 -114.33)" fill="#fff"/>
    <path id="Caminho_438" data-name="Caminho 438" d="M673.135,376.6v-1.886q0-1.919-.022-2.272a.585.585,0,0,0-.46-.61,2.093,2.093,0,0,0-.419-.033c-.121,0-.184-.033-.184-.1s.081-.1.235-.1h3.195a12.341,12.341,0,0,1,2.206.147,3.882,3.882,0,0,1,2.088,1.074,3.761,3.761,0,0,1,1.041,2.721,4.1,4.1,0,0,1-1.169,2.993,4.82,4.82,0,0,1-3.588,1.265q-.419,0-1.235-.066c-.54-.04-.893-.062-1.048-.062h-1.342c-.147,0-.213-.037-.213-.11s.077-.081.235-.1.213-.026.324-.033.268-.232.309-.588Q673.135,378.461,673.135,376.6Zm1.338-2.059v1.353c0,1.129,0,1.838.022,2.165a2.252,2.252,0,0,0,.118.813c.2.287.669.43,1.4.43a3.654,3.654,0,0,0,2.471-.772,3.382,3.382,0,0,0,.893-2.669,3.544,3.544,0,0,0-1.026-2.68,4.246,4.246,0,0,0-3.044-1.07,2.154,2.154,0,0,0-.684.063.228.228,0,0,0-.143.224c-.018.324-.022,1.037-.022,2.143Z" transform="translate(-360.577 -114.646)" fill="#fff"/>
    <path id="Caminho_439" data-name="Caminho 439" d="M703.4,379.59a4.111,4.111,0,0,1-3.309-1.393,4.382,4.382,0,0,1,0-5.592,4.246,4.246,0,0,1,3.419-1.415,4.478,4.478,0,0,1,3.162,1.081,3.808,3.808,0,0,1,1.165,2.941A4.235,4.235,0,0,1,703.4,379.6Zm.452-.533a2.18,2.18,0,0,0,1.522-.57,3.732,3.732,0,0,0,.963-2.893,4.3,4.3,0,0,0-.912-2.853,2.79,2.79,0,0,0-2.228-1.037,2.415,2.415,0,0,0-1.779.673,3.687,3.687,0,0,0-.857,2.68,4.411,4.411,0,0,0,.879,2.831A2.908,2.908,0,0,0,703.848,379.057Z" transform="translate(-377.669 -114.382)" fill="#fff"/>
  </g>
</svg>
