<svg id="icon-iclouds" xmlns="http://www.w3.org/2000/svg" viewBox="0 0 467.9 296.3">
	<path id="iclouds" d="M421,63.4c-18.8-16.5-41-26.2-65.8-29.8c-30.9-4.5-60,1.1-87,16.9c-1.9,1.1-1.8,1.1-2.7-1
	c-12.1-27.8-33.1-44.1-63-48.9c-1-0.2-2.2,0.1-3.1-0.6c-0.5,0-1,0-1.4,0c-0.7,0.5-1.4,0.4-2.2,0c-2.5,0-5,0-7.6,0
	c-0.7,0.4-1.4,0.5-2.2,0c-0.5,0-1,0-1.4,0c-0.2,0.2-0.4,0.2-0.6,0.2c-2.3,0.7-4.6,0.7-6.9,1.2c-32.8,6.3-58.1,32.4-63.3,65.3
	c-0.3,2-0.7,4-0.7,6.1c0,1.9-0.8,2-2.3,1.8c-6.2-0.6-12.3-0.6-18.5,0c-20.1,1.8-38.2,9-54,21.6c-19.9,15.9-32.1,36.4-36.9,61.3
	c-0.5,2.8-0.8,5.6-1.2,8.4c-0.1,0.4,0.1,1-0.4,1.3c0,0.7,0,1.4,0,2.2c0.5,0.7,0.5,1.4,0,2.2c0,2.8,0,5.5,0,8.3
	c0.5,0.7,0.5,1.4,0,2.2c0,0.7,0,1.4,0,2.2c0.1,0.2,0.2,0.3,0.2,0.5c0.6,1.9,0.5,3.9,0.8,5.8c3.2,21.1,12,39.4,26.7,54.9
	C44,262.3,63.9,272.6,87.3,276c12.9,1.9,25.8,1.3,38.5-1.9c1.4-0.4,2.4-0.2,3.6,0.7c15.5,12.1,33.1,19.1,52.7,21.1
	c0.5,0.1,1.1-0.2,1.5,0.4c0.6,0,1.2,0,1.8,0c0.7-0.5,1.4-0.4,2.2,0c2.9,0,5.8,0,8.6,0c0.6-0.4,1.2-0.4,1.8,0c0.7,0,1.4,0,2.2,0
	c0.2-0.2,0.4-0.2,0.6-0.2c1.9-0.6,3.8-0.5,5.7-0.8c19.1-2.8,36-10.3,50.9-22.7c1-0.8,1.6-0.8,2.6-0.1c19.4,13.5,40.9,21.2,64.4,23.3
	c0.5,0,1.1-0.2,1.5,0.4c0.8,0,1.7,0,2.5,0c0.8-0.5,1.7-0.5,2.5,0c3.2,0,6.5,0,9.7,0c0.7-0.5,1.4-0.5,2.2,0c0.8,0,1.7,0,2.5,0
	c0.1-0.1,0.2-0.1,0.3-0.2c1.1-0.5,2.3-0.3,3.5-0.5c29.6-3.1,55.3-14.7,77-35c22.1-20.7,36.1-46,40.3-76
	C473.1,136.3,457.9,95.6,421,63.4z M213.9,200c0,22.6,0,45.2,0,67.8c0,1.7-0.3,2.2-2.1,2.2c-10.6-0.1-21.2-0.1-31.8,0
	c-1.4,0-1.8-0.4-1.8-1.8c0-45.5,0-91,0-136.6c0-1.5,0.5-1.8,1.8-1.8c10.6,0,21.2,0.1,31.8,0c1.6,0,2.1,0.4,2.1,2.1
	C213.9,154.7,213.9,177.3,213.9,200z M196.3,118.4c-12.3,0-22.4-9.9-22.4-22.2c0-12.2,9.8-22,22.1-22c12.2,0,22.2,10,22.2,22.2
	C218.2,108.6,208.4,118.4,196.3,118.4z M428.1,231.3c-14.4,18.6-32.8,31.2-55.2,38c-11.8,3.6-23.9,5-36.6,5
	c-18.2-0.1-36.2-3.1-53-11.2c-21.2-10.2-36.9-26.2-47.8-46.9c-8.3-15.9-12-33-12.4-50.9c-0.4-17.7,2.4-34.9,10.4-50.7
	c15.4-30.3,39.6-50.1,72.7-58.2c25.5-6.2,51-5,75.7,4.5C400.5,68,416,79.6,428,95.5c0.9,1.2,0.9,1.7-0.3,2.6
	c-4.7,3.5-9.4,7.1-14,10.7c-1.1,0.9-1.6,0.6-2.3-0.4c-12.6-16.3-28.7-27.8-48.9-32.6c-36.4-8.6-68.3-0.4-94.3,27.1
	c-12.9,13.6-19.6,30.4-21.7,49c-1.8,16.6-0.5,33,6.4,48.3c13,28.8,35.2,46.5,66.3,52.4c15.9,3,31.8,2.4,47.3-2.4
	c13-4.1,24.4-11.1,34.3-20.4c3.8-3.5,7.3-7.3,10.5-11.3c0.8-0.9,1.3-1.1,2.3-0.3c4.7,3.6,9.4,7.3,14.2,10.7
	C429.1,229.8,428.8,230.3,428.1,231.3z" fill="#FFFFFF"/>
</svg>