<svg xmlns="http://www.w3.org/2000/svg" width="270.982" height="94.73" viewBox="0 0 270.982 94.73"><defs><style>.a{fill:none;stroke:#333;}.b{fill:#333;}.c{fill:#008f35;}.d{fill:#ffcb00;}.e{fill:#00722c;}.f{fill:#009035;}</style></defs><g transform="translate(81.617 9.744)"><path class="a" d="M284.139,354.957H388.852" transform="translate(-283.183 -299.714)"/><path class="a" d="M579.811,354.957h40.455" transform="translate(-430.901 -299.714)"/><path class="b" d="M597.773,291.655a59.3,59.3,0,0,0-8.933.464c-.332.07-.2-.792,0-.792,5.093-.531,5.557-.663,5.423-10.722l-.4-24.419-15.352,35.932a.434.434,0,0,1-.727-.068L562.1,258.04l-.394,22.566c-.2,8.93-.135,10.19,6.02,10.722.132,0,.262.861-.067.792a44.922,44.922,0,0,0-6.553-.464,47.464,47.464,0,0,0-8.005.464c-.333.07-.2-.792,0-.792,5.89-.663,6.219-1.323,6.35-10.722l.466-23.23c0-4.7-2.25-6.879-7.345-7.409-.2,0-.329-.8,0-.8a74.756,74.756,0,0,0,11.38.53l15.885,35.009,9.794-23.164a88.141,88.141,0,0,0,4.5-12.11,48.959,48.959,0,0,0,11.446-.265c.4,0,.2.8.068.8-6.883.6-6.749.925-6.62,10.721l.4,19.918c.133,9.793,0,10.123,6.947,10.722.135,0,.333.861,0,.792a82.762,82.762,0,0,0-8.6-.464Z" transform="translate(-417.193 -246.862)"/><path class="b" d="M390.064,272.974c0,4.343,0,11.341.057,12.187.177,2.765.177,3.555,1.992,4.4,1.581.735,9.683.849,10.738.849,3.159,0,8.254-1.64,8.254-8.015a13.338,13.338,0,0,0-5.678-11.285,9.9,9.9,0,0,0-4.859-1.635c-.762-.115-9.274-.115-10.152-.115-.236,0-.351.115-.351.4v3.216Zm0-5.979c0,.393.116.5.408.618.353.056,6.993.225,9.16.225,3.277,0,4.095-.113,5.326-1.467a8.55,8.55,0,0,0,2.106-5.7c0-4.682-2.167-9.705-7.9-9.705-.643,0-7.461.059-8.4.284-.527.113-.7.281-.7.621v15.124Zm-4.681-1.245c0-8.8,0-10.384-.119-12.189-.117-1.916-.584-2.821-2.515-3.217a11.378,11.378,0,0,0-1.991-.171c-.234,0-.469-.113-.469-.336,0-.337.293-.453.938-.453,2.634,0,6.319.17,6.612.17,1.4,0,9.276-.17,11.966-.17,9.6,0,11.705,5.644,11.705,8.467,0,4.625-2.75,7.39-5.5,10.155,4.331,1.3,10.125,5.3,10.125,11.907,0,6.039-4.915,12.3-14.923,12.3-.644,0-8.1-.112-9.8-.17-1.7-.113-3.335-.17-3.57-.17-.116,0-1.112,0-2.343.058-1.168,0-2.514.112-3.39.112-.646,0-.938-.112-.938-.451,0-.17.115-.338.467-.338a9.544,9.544,0,0,0,1.758-.225c1.169-.227,1.461-1.469,1.7-3.105.294-2.368.294-6.827.294-12.244V265.75Z" transform="translate(-331.22 -246.97)"/><path class="b" d="M312.689,273.116c.325,0,.325-.166.261-.389l-6.2-15.04c-.324-.834-.654-.834-.978,0l-5.746,15.04c-.131.278,0,.389.2.389Zm-6.791-22.28c.784-1.837,1.045-2.172,1.437-2.172s.654.28,1.434,2.005c.981,2.117,11.231,25.121,15.217,33.589,2.351,4.959,4.245,5.847,5.616,6.182a9.863,9.863,0,0,0,2.612.334c.392,0,.654.057.654.335,0,.334-.588.444-1.305.444-.978,0-5.748,0-10.252-.11-1.243-.056-1.961-.056-1.961-.39,0-.222.2-.336.458-.389.39-.113.783-.613.39-1.505l-6.073-13.7a.573.573,0,0,0-.587-.333l-14.4.068a.68.68,0,0,0-.654.445l-4.44,9.792a10.288,10.288,0,0,0-.915,3.731c0,1.113,1.373,1.616,2.482,1.616h.654c.458,0,.652.113.652.335,0,.334-.392.444-.979.444-1.567,0-4.374-.166-5.093-.166s-4.31.166-7.381.166c-.849,0-1.24-.11-1.24-.444,0-.223.26-.335.587-.335.457,0,1.371-.057,1.9-.111,3-.335,4.308-2.451,5.484-5.237Z" transform="translate(-282.228 -246.609)"/><path class="c" d="M483.373,290.155c-9.964,0-20.282-8.055-20.282-23.6,0-12.821,7.776-20.383,18.3-20.383,9.963,0,20.28,7.986,20.28,23.606C501.674,282.6,493.831,290.155,483.373,290.155Zm30.031,8.967a18.358,18.358,0,0,1-7.489,1.4c-5.371,0-12.225-3.921-18.019-9.527,11.657-2.869,19.431-13.728,19.431-23.6,0-11.91-9.893-22.835-24.309-22.835-15.051,0-25.582,12.819-25.582,24.305,0,11.837,9.613,22.625,23.817,22.906,0,0,3.464-.062,4.876,1.438,1.847,1.961,13.6,13.76,27.346,6.759.356-.21.069-.916-.072-.845Z" transform="translate(-369.763 -244.558)"/><path class="d" d="M521.323,352.869a17,17,0,0,0,2.765.208c6.283,0,9-2.082,11.771-3.63h0c-14.5,7.364-26.317-4.18-28.164-6.142-1.413-1.5-5.672-1.438-5.672-1.438,5.966,5.432,10.748,8.446,15.237,9.956a41.452,41.452,0,0,0,4.063,1.046Z" transform="translate(-392.038 -293.174)"/></g><path class="b" d="M170.552,251.787l2.541-1.248,1.928,2.077-.4-2.806,2.568-1.188-2.788-.485-.338-2.811-1.323,2.5-2.778-.544,1.972,2.029Z" transform="translate(-144.521 -235.197)"/><path class="b" d="M185.145,267.938l-.008.062a.219.219,0,0,1,.016-.049Z" transform="translate(-152.104 -246.495)"/><path class="b" d="M155.918,252.52l1.735-1.981,2.4,1.089-1.349-2.261,1.773-1.945-2.566.581-1.3-2.29-.236,2.624-2.583.53,2.422,1.032Z" transform="translate(-136.443 -235.392)"/><path class="b" d="M188.908,257.882l-1.157-2.364-2.6.424,1.893-1.83-1.2-2.34L188.166,253l1.853-1.868-.458,2.593,2.354,1.187-2.607.363Z" transform="translate(-152.111 -238.1)"/><path class="b" d="M133.584,273.822a3.079,3.079,0,0,1-1.5-2.682,36.485,36.485,0,0,1-.578-4.419c0-.867-.772-1.84-1.3-2.964s-1.931-4.087-2.024-4.292a1.332,1.332,0,0,0-1.738-.255c-1.014.459-2.171.1-2.461.255a8.016,8.016,0,0,1-1.832.563c-.483.051-.434.664-.772.868s-1.3-.36-1.3-.36-.482-.251-.578-.458-.1-.491-.291-1.071c-.286-.869.244-.953.244-.953s.819-.751,1.108-1.008a6.641,6.641,0,0,0,1.541-2.229c.05-.869.82-1.379,1.161-1.787.166-.206.546-.41.672-.72a1.206,1.206,0,0,0,0-.711c-.528-.408,0-2.1,0-2.1h.194a1.434,1.434,0,0,0,.192.717c.2.256.579,1.123.822.869s.674.05.674.05c-.385-.561.192-1.943.192-1.943h.2v.154a4.336,4.336,0,0,0,.193.972c.1.256.869,1.532.869,1.532a7.606,7.606,0,0,1,1.039.637c.289.25.536.172.889.1.725-.155,6.076,2.966,8.537,5.807a3.807,3.807,0,0,0,3.089,1.532,22.939,22.939,0,0,1,3.522,1.432,16.56,16.56,0,0,0,6.029-.867c2.894-1.074,5.161-1.993,8.538-.666a9.944,9.944,0,0,0,1.255.407,13.022,13.022,0,0,1,1.4.461s2.655-.357,4.341,3.424a18.162,18.162,0,0,1,1.4,10.78,3.582,3.582,0,0,0-.143-1.022c-.144-.358-.868,2.4-1.157,2.86v-1.022a14.626,14.626,0,0,0-.868,2.245,7.93,7.93,0,0,0-.193,1.022,9.309,9.309,0,0,1,.145-2.143c.19-.46-.435.815-.435.611s.048-1.48.048-1.838-.386.2-.337-2.195.434-4.19.05-5.877-.241-1.941-.241-1.941a8.93,8.93,0,0,1-.195,1.736,17.577,17.577,0,0,1-1.3,4.5c-.821,1.431-1.926,2.862-1.542,3.986a21.543,21.543,0,0,1,.966,2.809,1.468,1.468,0,0,0,.242.819,2.785,2.785,0,0,1,.335,2.094,10.93,10.93,0,0,0-.288,3.372c0,.97.048,3.728.048,3.934s0,.407-.2.51a.884.884,0,0,0-.335.511c-.05.154-.531.255-.531.614s.291.819.291.971-.436.457-.436.457a11.091,11.091,0,0,1-2.265,0,9.213,9.213,0,0,1,.82-1.278.587.587,0,0,1,.338-.51c.335-.153.481-.41.481-.969a2.655,2.655,0,0,1,.1-1.227,43.548,43.548,0,0,0,.051-4.957l-.148-.2s-.866,3.063-.917,3.628.148,1.379-.385,1.99a4.406,4.406,0,0,1-.965.869s-.241.36-.048.615.434.614.289.765a1.341,1.341,0,0,1-.482.256,6.154,6.154,0,0,1-2.073.1s.336-.869.431-1.071a2.1,2.1,0,0,1,.532-.816c.337-.31.676-.258.676-.72s.24-.611.579-1.479a22.772,22.772,0,0,0,.675-4.086,20.141,20.141,0,0,1-.675-3.323v-2.247a4.552,4.552,0,0,1-.87-1.945,8.845,8.845,0,0,0-2.023-3.319c-.336-.306-.531-.2-.916-.153s-.386-.153-.824-.356-2.217.817-2.987,1.381-4.223,1.7-8.053,2.123l-.2.02c-3.907.408-1.83.3-2.026.3a23.021,23.021,0,0,1,.531,2.812c.145,1.33.436,2.6.436,3.372a11.052,11.052,0,0,0,.094,2.35c.148.256.683,2.657.683,2.657s.763.767.572,1.073-.568.358-.572.87-.188,1.379,0,1.532.247.3,0,.358a1.918,1.918,0,0,0-.584.3s-.435.563-1.88.256a1.3,1.3,0,0,1,.386-.817,1.865,1.865,0,0,1,.673-.56c.289-.156.145-.407.337-.922s.291-.817.291-.817a1.267,1.267,0,0,1-.387-.818,22.8,22.8,0,0,0-.868-3.065,11.809,11.809,0,0,1-1.061-2.452,38.877,38.877,0,0,0-1.3-4.085c-.287-.666-.336-.41-.336.1s-.563,2.1-.257,2.965a4.907,4.907,0,0,1,0,2.91,3.56,3.56,0,0,0-.275,1.789,15.364,15.364,0,0,0,.275,2.505c.112.356.369.664,0,.969a6.039,6.039,0,0,0-.662.664,3.662,3.662,0,0,0-.336,1.176c0,.15.435.407.291.511a5.78,5.78,0,0,0-.578.665,11.806,11.806,0,0,1-2.267-.052v-.2a7.414,7.414,0,0,1,1.183-1.482c.405-.255.309-.511.5-.817a4.061,4.061,0,0,0,.432-1.277,4.855,4.855,0,0,1,.049-.868c.051-.155-.143-2.861-.143-2.861a9.5,9.5,0,0,1-.483-2.76,4.585,4.585,0,0,0-.358-2.71,7.006,7.006,0,0,1-1.136-4.747Z" transform="translate(-119.123 -237.131)"/><path class="d" d="M209.072,262.134c4.209,4.409,6.049,9.554,6.049,16.131a24.479,24.479,0,0,1-7.718,17.867.233.233,0,0,1-.035.036c14.792-6.911,28.042-21.3,28.042-21.3C226.672,273.737,216.6,268.286,209.072,262.134Z" transform="translate(-163.211 -243.595)"/><path class="e" d="M293.934,225.086c.769,6.473,1.758,14.279-1.975,25.813l7.026-19.238C300.4,227.58,295.581,225.385,293.934,225.086Z" transform="translate(-205.472 -225.086)"/><path class="f" d="M217.471,237.424c-11.425,8.621-45.137-3.846-59.265-2.778-13.066.987-18.311,8.918-18.311,8.918.017-.013.033-.023.048-.036a26.1,26.1,0,0,1,15.774-5.278c6.722,0,12.142,2.413,17.49,6.69a40.018,40.018,0,0,0,6.913,4.733c18.545,11.181,26.442,9.76,26.442,9.76a82.063,82.063,0,0,1-32.611,24.187c17.673,2.96,30.065-1.5,30.066-1.5l11.969-26.48.03-.065c1.5-5.891,2.264-13.95,1.454-18.154Z" transform="translate(-129.501 -229.829)"/><g transform="translate(82.408 74.423)"><path class="b" d="M292.434,389.321c1.871,0,5.737-1.081,5.737-7.129,0-4.988-3.034-7.669-6.318-7.669-3.471,0-6.069,2.286-6.069,6.837,0,4.842,2.91,7.96,6.651,7.96Zm2.764.083a8.123,8.123,0,0,1-3.263.707c-5.757,0-8.126-4.428-8.126-8.168A8.045,8.045,0,0,1,292,373.817c4.677,0,8.168,2.971,8.168,7.794a8.551,8.551,0,0,1-3.678,6.983l4.26,2.2a18.958,18.958,0,0,0,8.75,2.452,11.762,11.762,0,0,0,4.094-.81,1.284,1.284,0,0,1,.291-.084.12.12,0,0,1,.125.125c0,.083-.042.146-.166.208a15.874,15.874,0,0,1-6.589,1.435c-2.514,0-5.2-.915-8.563-2.786Z" transform="translate(-283.809 -373.816)"/><path class="b" d="M321.123,384.2c0-2.743,0-3.242-.042-3.8s-.145-.893-.748-.977a5.817,5.817,0,0,0-.624-.042.176.176,0,0,1-.145-.145c0-.1.083-.146.291-.146.831,0,1.933.042,2.1.042s1.309-.042,1.849-.042c.208,0,.312.042.312.146a.179.179,0,0,1-.166.145,2.137,2.137,0,0,0-.457.042c-.478.084-.582.4-.624.977-.042.562-.042,1.06-.042,3.8v2.473c0,2.556.56,3.616,1.351,4.323a3.562,3.562,0,0,0,2.722.956,3.752,3.752,0,0,0,2.826-1.247c.852-1.018,1.039-2.472,1.039-4.281V384.2c0-2.743-.022-3.242-.042-3.8s-.125-.893-.728-.977a5.949,5.949,0,0,0-.624-.041.156.156,0,0,1-.145-.145c0-.1.083-.146.291-.146.81,0,1.871.042,1.975.042.125,0,1-.042,1.538-.042.208,0,.291.042.291.146a.156.156,0,0,1-.145.145,2.161,2.161,0,0,0-.457.041c-.5.1-.6.4-.645.977-.042.562-.021,1.06-.021,3.8V386.1c0,1.913-.249,4.053-1.7,5.3a5.53,5.53,0,0,1-3.824,1.289,5.709,5.709,0,0,1-3.8-1.246c-.894-.832-1.6-2.058-1.6-4.635v-2.6Z" transform="translate(-301.673 -376.451)"/><path class="b" d="M354.1,386.47c.083,0,.083-.042.062-.125l-1.808-4.843q-.156-.405-.312,0l-1.7,4.843c-.021.083,0,.125.063.125Zm-2.037-7.357c.228-.581.312-.685.436-.685.187,0,.249.249.436.644.332.748,3.263,8.043,4.386,10.725.665,1.579,1.163,1.808,1.558,1.933a2.538,2.538,0,0,0,.727.1c.1,0,.229.042.229.146s-.208.146-.415.146c-.27,0-1.621,0-2.889-.042-.353-.021-.645-.021-.645-.125,0-.083.042-.083.125-.125a.332.332,0,0,0,.167-.478L354.54,387.3c-.042-.083-.063-.1-.167-.1h-4.219a.193.193,0,0,0-.187.145l-1.039,2.827a3.653,3.653,0,0,0-.27,1.184c0,.353.312.478.623.478h.167c.145,0,.187.063.187.146,0,.1-.1.146-.27.146-.436,0-1.434-.063-1.642-.063-.187,0-1.1.063-1.849.063-.229,0-.353-.042-.353-.146a.161.161,0,0,1,.166-.146,4.923,4.923,0,0,0,.54-.042c.832-.1,1.185-.727,1.538-1.62Z" transform="translate(-314.64 -376.12)"/><path class="b" d="M377.727,385.7a.261.261,0,0,0,.125.229,6.207,6.207,0,0,0,2.016.27,2.378,2.378,0,0,0,1.372-.312,3.155,3.155,0,0,0,1.1-2.7c0-2.2-1.2-3.471-3.159-3.471a7.974,7.974,0,0,0-1.31.1.225.225,0,0,0-.145.208V385.7Zm-1.58-1.5c0-2.743,0-3.243-.042-3.8-.042-.6-.145-.893-.748-.977a5.972,5.972,0,0,0-.623-.042.176.176,0,0,1-.145-.145c0-.1.083-.146.29-.146.831,0,2.058.042,2.161.042.187,0,1.725-.042,2.286-.042a5.994,5.994,0,0,1,3.409.769,3.1,3.1,0,0,1,1.267,2.41c0,1.31-.54,2.577-2.244,4.032,1.5,1.87,2.764,3.471,3.825,4.573a3.449,3.449,0,0,0,2.681,1.288.161.161,0,0,1,.167.146c0,.1-.1.146-.437.146h-1.143a3.687,3.687,0,0,1-1.954-.353,9.344,9.344,0,0,1-2.494-2.6c-.768-.957-1.579-2.1-1.974-2.578a.28.28,0,0,0-.25-.1l-2.327-.042c-.083,0-.125.042-.125.145v.416c0,1.7,0,3.076.083,3.8.062.519.166.852.727.935a6.711,6.711,0,0,0,.811.083.13.13,0,0,1,.146.146c0,.083-.083.146-.291.146-1,0-2.161-.063-2.244-.063-.021,0-1.247.063-1.808.063-.187,0-.291-.042-.291-.146a.141.141,0,0,1,.146-.146,2.609,2.609,0,0,0,.56-.083c.354-.083.4-.416.478-.935a36.175,36.175,0,0,0,.1-3.824V384.2Z" transform="translate(-329.164 -376.451)"/><path class="b" d="M403.686,387.073c0,1.7,0,3.1.083,3.825.063.519.146.852.707.935a7.1,7.1,0,0,0,.831.083.13.13,0,0,1,.146.145c0,.084-.084.146-.291.146-1,0-2.161-.062-2.265-.062-.083,0-1.351.063-1.891.063-.208,0-.291-.042-.291-.146,0-.063.042-.125.146-.125a2.4,2.4,0,0,0,.54-.083c.374-.083.478-.437.54-.956.083-.728.083-2.12.083-3.825v-7.419l-2.64.042c-1.143.021-1.579.146-1.849.561a2.854,2.854,0,0,0-.291.561c-.042.146-.1.167-.187.167a.138.138,0,0,1-.125-.146c0-.187.374-1.766.395-1.911.042-.1.125-.332.187-.332a6.448,6.448,0,0,0,.81.207c.52.063,1.226.083,1.434.083h6.9a9.108,9.108,0,0,0,1.31-.083c.27-.041.436-.083.519-.083s.083.1.083.208c0,.54-.062,1.807-.062,2.016,0,.145-.084.229-.167.229s-.125-.062-.145-.312l-.021-.187c-.062-.54-.457-.935-2.2-.977l-2.286-.042v7.419Z" transform="translate(-340.326 -376.203)"/><path class="b" d="M429.1,391.707c1.642,0,4.947-.873,4.947-5.986,0-4.24-2.577-6.464-5.466-6.464-3.055,0-5.258,1.912-5.258,5.757C423.324,389.13,425.8,391.707,429.1,391.707Zm-.415-13.114c4.115,0,7.233,2.514,7.233,6.63a7.078,7.078,0,0,1-7.337,7.212,6.776,6.776,0,0,1-7.15-6.942,7,7,0,0,1,7.254-6.9Z" transform="translate(-352.566 -376.202)"/><path class="b" d="M469.062,389.663c0,1.531,0,2.875.017,3.147a2.729,2.729,0,0,0,.17,1.037c.187.273.715.579,2.483.579a5.019,5.019,0,0,0,3.5-1.31,4.871,4.871,0,0,0,1.174-3.437A5.011,5.011,0,0,0,475,386.056c-1.412-1.428-3.062-1.616-4.848-1.616a3.994,3.994,0,0,0-.9.1.253.253,0,0,0-.187.289v4.831ZM467.7,388.1c0-2.245,0-2.654-.034-3.113-.034-.493-.119-.732-.612-.8a4.964,4.964,0,0,0-.51-.034.144.144,0,0,1-.12-.119c0-.085.069-.119.239-.119.68,0,1.65.034,1.735.034.17,0,1.123-.034,2.008-.034,1.5,0,4.235-.136,6.005,1.65a5.079,5.079,0,0,1,1.463,3.674,5.79,5.79,0,0,1-1.616,4.066,6.008,6.008,0,0,1-4.542,1.667c-.646,0-1.446-.051-2.093-.084-.646-.052-1.157-.085-1.225-.085-.034,0-.306.017-.613.017-.306.017-.664.033-.9.033-.153,0-.238-.033-.238-.118a.115.115,0,0,1,.119-.119,2.142,2.142,0,0,0,.459-.068c.289-.068.323-.34.391-.766a29.343,29.343,0,0,0,.086-3.13V388.1Z" transform="translate(-375.045 -378.859)"/><path class="b" d="M493.875,387.98c0-2.245,0-2.654-.034-3.113-.034-.493-.119-.732-.613-.8a4.688,4.688,0,0,0-.511-.034.143.143,0,0,1-.119-.119c0-.085.068-.119.238-.119.681,0,1.65.034,1.735.034.1,0,3.233.017,3.573,0,.289-.017.561-.069.68-.085.069-.017.136-.069.2-.069.052,0,.068.069.068.137,0,.1-.085.272-.119.68-.017.136-.052.783-.085.953-.017.068-.069.153-.136.153-.085,0-.119-.068-.119-.187a1.572,1.572,0,0,0-.085-.51c-.1-.239-.255-.34-1.072-.442-.255-.034-1.991-.052-2.16-.052-.068,0-.085.052-.085.154v3.93c0,.1,0,.153.085.153.187,0,2.16,0,2.5-.034.358-.035.578-.052.732-.2.1-.1.17-.188.221-.188s.085.034.085.119a7.859,7.859,0,0,0-.119.8c-.034.289-.068.834-.068.936,0,.119-.034.272-.136.272-.069,0-.1-.052-.1-.136a1.272,1.272,0,0,0-.069-.476c-.051-.2-.187-.374-.765-.443-.408-.051-2.008-.068-2.262-.068a.09.09,0,0,0-.1.1v1.208c0,.492-.017,2.177,0,2.466.034.97.306,1.157,1.786,1.157a4.985,4.985,0,0,0,1.5-.153,1.1,1.1,0,0,0,.681-1c.034-.171.068-.221.153-.221s.1.119.1.221a11.939,11.939,0,0,1-.2,1.394c-.1.375-.256.375-.834.375-1.123,0-1.991-.034-2.6-.051-.63-.034-1.021-.034-1.242-.034-.034,0-.323,0-.646.017-.289.017-.63.034-.867.034-.153,0-.238-.034-.238-.119a.114.114,0,0,1,.118-.119,4.276,4.276,0,0,0,.459-.068c.289-.052.323-.34.391-.766a29.5,29.5,0,0,0,.085-3.129V387.98Z" transform="translate(-388.121 -378.741)"/><path class="b" d="M540.041,387.138c.083.748.229,1.912,1.122,2.2a4.515,4.515,0,0,0,1.351.187c.1,0,.166.022.166.1,0,.125-.187.187-.436.187-.457,0-2.7-.063-3.471-.125-.478-.042-.581-.1-.581-.208,0-.083.042-.125.145-.146s.125-.374.083-.748l-1-10.724h-.062l-5.092,10.807c-.436.914-.5,1.1-.686,1.1-.146,0-.25-.208-.644-.956-.54-1.018-2.328-4.614-2.432-4.822-.187-.374-2.514-5.362-2.743-5.924h-.083l-.832,9.644c-.021.332-.021.707-.021,1.06a.665.665,0,0,0,.54.644,3.791,3.791,0,0,0,.789.1c.083,0,.166.042.166.1,0,.146-.125.187-.374.187-.769,0-1.766-.063-1.932-.063-.187,0-1.185.063-1.746.063-.208,0-.353-.042-.353-.187,0-.063.1-.1.208-.1a2.7,2.7,0,0,0,.623-.062c.686-.125.748-.935.831-1.725l1.5-13.551c.021-.229.1-.374.228-.374s.208.083.312.311l6.36,13.073,6.111-13.052c.083-.187.166-.332.311-.332s.208.166.249.561Z" transform="translate(-402.769 -373.815)"/><path class="b" d="M568.97,387.321c0,1.7,0,3.1.083,3.825.063.519.125.852.665.935a7.567,7.567,0,0,0,.831.083.141.141,0,0,1,.146.145c0,.084-.083.146-.291.146-1.018,0-2.2-.063-2.286-.063-.1,0-1.247.063-1.807.063-.188,0-.292-.042-.292-.146a.141.141,0,0,1,.146-.145,2.649,2.649,0,0,0,.561-.083c.354-.083.416-.416.478-.935.083-.728.1-2.12.1-3.825V384.2c0-2.743,0-3.242-.042-3.8-.042-.6-.187-.873-.582-.956a3.273,3.273,0,0,0-.561-.063.156.156,0,0,1-.146-.145c0-.1.083-.146.291-.146.6,0,1.745.042,1.85.042.083,0,1.267-.042,1.829-.042.208,0,.291.042.291.146a.176.176,0,0,1-.145.145,2.016,2.016,0,0,0-.457.042c-.5.1-.6.354-.644.976-.021.561-.021,1.06-.021,3.8Z" transform="translate(-424.781 -376.451)"/><path class="b" d="M582.82,387.363c0,2.6.042,3.658.374,3.97.291.291,1,.416,2.431.416.956,0,1.767-.022,2.2-.54a2.17,2.17,0,0,0,.436-1c.021-.125.083-.229.187-.229.083,0,.125.083.125.271a11.152,11.152,0,0,1-.27,1.767c-.125.415-.187.478-1.164.478-1.31,0-2.327-.021-3.18-.063-.831-.021-1.455-.041-2-.041-.083,0-.395,0-.748.02-.374.021-.769.042-1.06.042-.187,0-.291-.042-.291-.146a.14.14,0,0,1,.145-.145,2.649,2.649,0,0,0,.561-.083c.354-.084.4-.416.478-.935a36.186,36.186,0,0,0,.1-3.825V384.2c0-2.743,0-3.242-.042-3.8-.042-.6-.145-.893-.748-.976a5.832,5.832,0,0,0-.623-.042.176.176,0,0,1-.145-.145c0-.1.083-.146.291-.146.831,0,1.974.042,2.078.042.083,0,1.455-.042,2.016-.042.187,0,.291.042.291.146,0,.062-.083.124-.146.124-.125,0-.395.02-.6.042-.54.1-.644.374-.686,1-.021.561-.021,1.06-.021,3.8v3.158Z" transform="translate(-431.587 -376.451)"/><path class="b" d="M613.289,387.321c0,1.7.021,3.1.1,3.825.063.519.1.852.665.935a7.262,7.262,0,0,0,.811.083.147.147,0,0,1,.166.145c0,.084-.1.146-.312.146-1,0-2.161-.063-2.265-.063-.083,0-1.268.063-1.808.063-.207,0-.291-.042-.291-.146a.141.141,0,0,1,.146-.145,2.462,2.462,0,0,0,.54-.083c.374-.083.436-.437.5-.956.083-.728.083-2.058.083-3.763V385.6c0-.083-.042-.1-.1-.1H603.9c-.063,0-.1.021-.1.1v1.766c0,1.7,0,3.055.083,3.784.063.519.125.852.665.935a7.567,7.567,0,0,0,.831.083.141.141,0,0,1,.146.145c0,.084-.083.146-.291.146-1.018,0-2.182-.063-2.265-.063-.1,0-1.268.063-1.828.063-.187,0-.291-.042-.291-.146a.141.141,0,0,1,.146-.145,2.649,2.649,0,0,0,.561-.083c.354-.083.4-.416.478-.935a36.207,36.207,0,0,0,.1-3.825V384.2c0-2.743,0-3.242-.042-3.8-.041-.6-.145-.893-.748-.976a5.832,5.832,0,0,0-.623-.042.176.176,0,0,1-.145-.145c0-.1.083-.146.291-.146.831,0,1.995.042,2.1.042.084,0,1.247-.042,1.808-.042.208,0,.291.042.291.146a.176.176,0,0,1-.145.145,2.015,2.015,0,0,0-.457.042c-.5.1-.6.354-.645.976-.021.561-.021,1.1-.021,3.846v.373c0,.1.042.1.1.1h7.627c.063,0,.1,0,.1-.1v-.373c0-2.744-.021-3.284-.042-3.846-.042-.6-.125-.893-.728-.976a5.811,5.811,0,0,0-.623-.042.156.156,0,0,1-.146-.145c0-.1.083-.146.291-.146.811,0,2,.042,2.078.042.1,0,1.268-.042,1.808-.042.208,0,.312.042.312.146a.179.179,0,0,1-.167.145,2.108,2.108,0,0,0-.457.042c-.478.1-.582.354-.623.976-.042.561-.042,1.06-.042,3.8Z" transform="translate(-442.064 -376.451)"/><path class="b" d="M638.678,386.47c.083,0,.083-.042.062-.125l-1.808-4.843q-.156-.405-.312,0l-1.7,4.843c-.02.083,0,.125.063.125Zm-2.037-7.357c.228-.581.311-.685.436-.685.187,0,.249.249.436.644.332.748,3.263,8.043,4.385,10.725.665,1.579,1.164,1.808,1.559,1.933a2.537,2.537,0,0,0,.727.1c.1,0,.229.042.229.146s-.208.146-.415.146c-.27,0-1.621,0-2.889-.042-.354-.021-.644-.021-.644-.125,0-.083.042-.083.125-.125a.332.332,0,0,0,.167-.478l-1.642-4.053c-.042-.083-.063-.1-.166-.1h-4.22a.193.193,0,0,0-.187.145L633.5,390.17a3.653,3.653,0,0,0-.27,1.184c0,.353.312.478.624.478h.167c.145,0,.187.063.187.146,0,.1-.1.146-.27.146-.436,0-1.434-.063-1.641-.063-.187,0-1.1.063-1.85.063-.229,0-.353-.042-.353-.146a.161.161,0,0,1,.166-.146,4.924,4.924,0,0,0,.54-.042c.831-.1,1.185-.727,1.538-1.62Z" transform="translate(-456.815 -376.12)"/></g></svg>