<svg xmlns="http://www.w3.org/2000/svg" width="183.958" height="65.594" viewBox="0 0 183.958 65.594"><defs><style>.a{fill:none;stroke:#f2f2f2;}.b{fill:#f2f2f2;}.c{fill:#fff;}</style></defs><g transform="translate(55.407 6.747)"><path class="a" d="M284.139,354.957h71.086" transform="translate(-283.49 -316.705)"/><path class="a" d="M579.811,354.957h27.463" transform="translate(-478.723 -316.705)"/><path class="b" d="M583.193,278.588a39.475,39.475,0,0,0-6.064.321c-.226.048-.136-.548,0-.548,3.457-.368,3.772-.459,3.682-7.424l-.269-16.909L570.12,278.909a.292.292,0,0,1-.494-.047l-10.648-23.55-.268,15.625c-.137,6.184-.091,7.056,4.087,7.424.09,0,.178.6-.045.548a29.91,29.91,0,0,0-4.449-.321,31.6,31.6,0,0,0-5.435.321c-.226.048-.135-.548,0-.548,4-.459,4.222-.916,4.31-7.424l.316-16.086c0-3.253-1.527-4.764-4.986-5.13-.136,0-.223-.552,0-.552a49.764,49.764,0,0,0,7.726.367l10.783,24.241,6.649-16.039a61.807,61.807,0,0,0,3.055-8.385,32.59,32.59,0,0,0,7.77-.184c.271,0,.136.552.046.552-4.673.414-4.582.641-4.494,7.424l.271,13.792c.09,6.781,0,7.01,4.716,7.424.091,0,.226.6,0,.548a55.1,55.1,0,0,0-5.838-.321Z" transform="translate(-460.605 -247.572)"/><path class="b" d="M386.925,265.719c0,3.008,0,7.853.038,8.438.12,1.915.12,2.461,1.352,3.048,1.073.509,6.574.588,7.289.588,2.145,0,5.6-1.135,5.6-5.55a9.3,9.3,0,0,0-3.854-7.814,6.631,6.631,0,0,0-3.3-1.132c-.517-.079-6.3-.079-6.892-.079-.16,0-.238.079-.238.275v2.227Zm0-4.14c0,.272.078.35.277.428.24.038,4.747.156,6.219.156,2.225,0,2.78-.078,3.616-1.016a5.99,5.99,0,0,0,1.43-3.947c0-3.242-1.471-6.72-5.363-6.72-.437,0-5.065.041-5.7.2-.358.078-.476.194-.476.43v10.472Zm-3.177-.862c0-6.095,0-7.19-.081-8.44-.08-1.327-.4-1.953-1.707-2.227a7.577,7.577,0,0,0-1.351-.118c-.159,0-.319-.078-.319-.233,0-.234.2-.314.637-.314,1.788,0,4.29.118,4.489.118.953,0,6.3-.118,8.123-.118,6.517,0,7.946,3.908,7.946,5.863,0,3.2-1.867,5.117-3.735,7.032,2.94.9,6.873,3.673,6.873,8.245,0,4.181-3.336,8.518-10.131,8.518-.437,0-5.5-.078-6.654-.118-1.152-.078-2.264-.117-2.423-.117-.078,0-.755,0-1.59.04-.793,0-1.707.078-2.3.078-.438,0-.637-.078-.637-.312,0-.118.078-.234.317-.234a6.357,6.357,0,0,0,1.193-.156c.794-.157.992-1.017,1.151-2.15.2-1.64.2-4.728.2-8.478v-6.877Z" transform="translate(-346.979 -247.712)"/><path class="b" d="M302.907,265.6c.221,0,.221-.115.177-.27l-4.211-10.414c-.22-.577-.444-.577-.664,0l-3.9,10.414c-.089.192,0,.27.133.27Zm-4.61-15.428c.532-1.272.709-1.5.976-1.5s.444.194.974,1.388c.666,1.466,7.625,17.395,10.33,23.258,1.6,3.434,2.882,4.049,3.812,4.281a6.571,6.571,0,0,0,1.773.231c.266,0,.444.039.444.232,0,.231-.4.307-.886.307-.664,0-3.9,0-6.96-.076-.844-.039-1.331-.039-1.331-.27,0-.153.134-.233.311-.269.265-.078.531-.425.265-1.042l-4.123-9.488a.388.388,0,0,0-.4-.23l-9.774.047a.462.462,0,0,0-.444.308l-3.014,6.78a7.242,7.242,0,0,0-.621,2.584c0,.771.932,1.119,1.685,1.119h.444c.311,0,.443.078.443.232,0,.231-.266.307-.665.307-1.064,0-2.97-.115-3.457-.115s-2.926.115-5.011.115c-.576,0-.842-.076-.842-.307,0-.154.177-.232.4-.232.31,0,.931-.04,1.287-.077,2.038-.232,2.924-1.7,3.723-3.626Z" transform="translate(-282.228 -247.241)"/><path class="c" d="M475.044,276.131c-6.764,0-13.768-5.577-13.768-16.343,0-8.877,5.279-14.114,12.424-14.114,6.764,0,13.767,5.53,13.767,16.346C487.467,270.9,482.143,276.131,475.044,276.131Zm20.387,6.209a12.249,12.249,0,0,1-5.084.972c-3.646,0-8.3-2.715-12.232-6.6,7.913-1.987,13.191-9.506,13.191-16.345,0-8.247-6.716-15.812-16.5-15.812-10.218,0-17.366,8.876-17.366,16.83,0,8.2,6.526,15.666,16.169,15.861,0,0,2.351-.043,3.31,1,1.254,1.358,9.229,9.528,18.564,4.68.242-.146.047-.634-.049-.585Z" transform="translate(-397.918 -244.558)"/><path class="c" d="M515.125,349.485a11.318,11.318,0,0,0,1.877.144c4.265,0,6.111-1.441,7.991-2.513h0c-9.843,5.1-17.866-2.895-19.119-4.253-.959-1.036-3.851-1-3.851-1,4.05,3.762,7.3,5.848,10.343,6.894a27.7,27.7,0,0,0,2.758.725Z" transform="translate(-427.359 -308.15)"/></g><path class="b" d="M170.362,249.8l1.725-.865,1.309,1.438-.273-1.943,1.743-.823-1.893-.336-.229-1.946-.9,1.732-1.886-.377,1.338,1.4Z" transform="translate(-152.691 -238.312)"/><path class="b" d="M185.142,267.938l-.005.043a.154.154,0,0,1,.011-.034Z" transform="translate(-162.712 -253.09)"/><path class="b" d="M155.235,250.427l1.178-1.371,1.628.754-.915-1.565,1.2-1.346-1.742.4-.882-1.586-.16,1.817-1.753.367,1.645.714Z" transform="translate(-142.014 -238.567)"/><path class="b" d="M187.7,255.807l-.786-1.637-1.765.294,1.285-1.267-.818-1.62,1.579.852,1.258-1.294-.311,1.8,1.6.822-1.77.252Z" transform="translate(-162.721 -242.109)"/><path class="b" d="M128.94,266.248a2.145,2.145,0,0,1-1.016-1.857,25.744,25.744,0,0,1-.392-3.06,6.356,6.356,0,0,0-.885-2.052c-.361-.779-1.311-2.83-1.374-2.972a.893.893,0,0,0-1.18-.177c-.688.318-1.474.072-1.671.177a5.366,5.366,0,0,1-1.244.39c-.328.035-.295.459-.524.6s-.884-.249-.884-.249-.327-.174-.392-.317-.065-.34-.2-.742c-.194-.6.166-.66.166-.66s.556-.52.752-.7a4.6,4.6,0,0,0,1.046-1.543c.034-.6.557-.955.788-1.238.113-.142.371-.284.456-.5a.851.851,0,0,0,0-.492c-.359-.283,0-1.452,0-1.452h.132a1.009,1.009,0,0,0,.13.5c.132.177.393.778.558.6s.458.034.458.034c-.262-.388.13-1.345.13-1.345h.132v.107a3.055,3.055,0,0,0,.131.673c.065.177.59,1.061.59,1.061a5.145,5.145,0,0,1,.705.441c.2.173.364.119.6.066.492-.107,4.125,2.054,5.8,4.021a2.563,2.563,0,0,0,2.1,1.061,15.4,15.4,0,0,1,2.391.991,11.035,11.035,0,0,0,4.093-.6c1.964-.744,3.5-1.38,5.8-.461a6.662,6.662,0,0,0,.852.282,8.724,8.724,0,0,1,.949.319s1.8-.247,2.947,2.371a12.805,12.805,0,0,1,.949,7.464,2.527,2.527,0,0,0-.1-.708c-.1-.248-.589,1.662-.785,1.98v-.708a10.248,10.248,0,0,0-.589,1.555,5.588,5.588,0,0,0-.131.708,6.573,6.573,0,0,1,.1-1.484c.129-.319-.3.564-.3.423s.032-1.025.032-1.273-.262.142-.229-1.52a18.884,18.884,0,0,0,.034-4.07c-.264-1.166-.163-1.344-.163-1.344a6.3,6.3,0,0,1-.132,1.2,12.361,12.361,0,0,1-.885,3.113c-.557.991-1.307,1.982-1.047,2.76a15.123,15.123,0,0,1,.656,1.945,1.031,1.031,0,0,0,.164.567,1.961,1.961,0,0,1,.227,1.45,7.714,7.714,0,0,0-.2,2.335c0,.672.032,2.582.032,2.724s0,.282-.132.353a.613.613,0,0,0-.227.354c-.034.107-.361.177-.361.425a4.046,4.046,0,0,0,.2.673c0,.105-.3.317-.3.317a7.383,7.383,0,0,1-1.538,0,6.4,6.4,0,0,1,.556-.885.408.408,0,0,1,.23-.353c.228-.106.326-.284.326-.671a1.873,1.873,0,0,1,.066-.85,30.757,30.757,0,0,0,.034-3.433l-.1-.14s-.588,2.121-.623,2.512.1.955-.261,1.378a3.007,3.007,0,0,1-.655.6s-.164.249-.033.426.295.425.2.53a.9.9,0,0,1-.327.177,4.1,4.1,0,0,1-1.407.071s.228-.6.293-.742a1.456,1.456,0,0,1,.361-.565c.229-.214.459-.179.459-.5s.163-.423.393-1.024a16.058,16.058,0,0,0,.458-2.829,14.19,14.19,0,0,1-.458-2.3v-1.556a3.177,3.177,0,0,1-.591-1.346,6.143,6.143,0,0,0-1.373-2.3c-.228-.212-.361-.14-.622-.106s-.262-.106-.559-.247-1.505.565-2.028.956a16.054,16.054,0,0,1-5.467,1.47l-.134.014c-2.652.282-1.243.211-1.375.211a16.222,16.222,0,0,1,.361,1.947c.1.921.3,1.8.3,2.335a7.8,7.8,0,0,0,.064,1.628c.1.177.464,1.84.464,1.84s.518.531.389.743-.386.248-.389.6-.127.955,0,1.061.167.211,0,.248a1.3,1.3,0,0,0-.4.211s-.3.39-1.276.177a.913.913,0,0,1,.262-.566,1.272,1.272,0,0,1,.457-.388c.2-.108.1-.282.229-.639s.2-.565.2-.565a.883.883,0,0,1-.263-.567,16.036,16.036,0,0,0-.589-2.122,8.261,8.261,0,0,1-.72-1.7,27.306,27.306,0,0,0-.886-2.829c-.195-.461-.228-.284-.228.068s-.382,1.452-.174,2.053a3.462,3.462,0,0,1,0,2.015,2.509,2.509,0,0,0-.186,1.239,10.844,10.844,0,0,0,.186,1.735c.076.247.251.459,0,.671a4.145,4.145,0,0,0-.449.46,2.575,2.575,0,0,0-.228.815c0,.1.3.282.2.354a3.981,3.981,0,0,0-.393.46,7.858,7.858,0,0,1-1.539-.036v-.141a5.12,5.12,0,0,1,.8-1.026c.275-.176.21-.354.341-.566a2.851,2.851,0,0,0,.293-.885,3.428,3.428,0,0,1,.033-.6c.034-.107-.1-1.981-.1-1.981a6.694,6.694,0,0,1-.328-1.911,3.232,3.232,0,0,0-.243-1.876,4.932,4.932,0,0,1-.771-3.287Z" transform="translate(-119.123 -240.841)"/><path class="c" d="M208.525,262.134a15.343,15.343,0,0,1,4.107,11.17,17.11,17.11,0,0,1-5.239,12.372.158.158,0,0,1-.023.025c10.042-4.786,19.037-14.75,19.037-14.75C220.473,270.168,213.637,266.394,208.525,262.134Z" transform="translate(-177.392 -249.297)"/><path class="c" d="M293.3,225.086c.522,4.482,1.193,9.887-1.34,17.874l4.769-13.321C297.691,226.813,294.418,225.293,293.3,225.086Z" transform="translate(-233.247 -225.086)"/><path class="c" d="M192.558,236.549c-7.756,5.97-30.641-2.663-40.232-1.924-8.87.683-12.431,6.175-12.431,6.175l.032-.025a17.493,17.493,0,0,1,10.709-3.655c4.563,0,8.243,1.671,11.873,4.632a27.149,27.149,0,0,0,4.693,3.277c12.59,7.742,17.951,6.758,17.951,6.758a55.7,55.7,0,0,1-22.138,16.748c12,2.05,20.41-1.036,20.411-1.036l8.125-18.336.02-.045c1.02-4.079,1.537-9.659.987-12.57Z" transform="translate(-132.839 -231.29)"/><g transform="translate(55.944 51.533)"><path class="b" d="M289.664,384.553c1.27,0,3.894-.748,3.894-4.936,0-3.454-2.06-5.31-4.289-5.31-2.356,0-4.12,1.583-4.12,4.734,0,3.353,1.975,5.512,4.515,5.512Zm1.876.057a5.424,5.424,0,0,1-2.215.489,5.36,5.36,0,0,1-5.517-5.656,5.522,5.522,0,0,1,5.559-5.627,5.2,5.2,0,0,1,5.545,5.4,5.949,5.949,0,0,1-2.5,4.835l2.892,1.526a12.67,12.67,0,0,0,5.94,1.7,7.847,7.847,0,0,0,2.779-.561.859.859,0,0,1,.2-.058.082.082,0,0,1,.085.087c0,.058-.028.1-.113.144a10.6,10.6,0,0,1-4.473.993,11.973,11.973,0,0,1-5.813-1.929Z" transform="translate(-283.809 -373.816)"/><path class="b" d="M320.623,382.631c0-1.9,0-2.245-.028-2.634s-.1-.618-.508-.676a3.868,3.868,0,0,0-.423-.029.121.121,0,0,1-.1-.1c0-.072.056-.1.2-.1.564,0,1.312.029,1.425.029s.889-.029,1.256-.029c.141,0,.212.029.212.1a.122.122,0,0,1-.113.1,1.422,1.422,0,0,0-.31.029c-.324.058-.4.274-.423.676s-.028.734-.028,2.634v1.712c0,1.77.38,2.5.917,2.993a2.389,2.389,0,0,0,1.848.662,2.526,2.526,0,0,0,1.919-.863,4.58,4.58,0,0,0,.706-2.965v-1.54c0-1.9-.015-2.245-.028-2.634s-.085-.618-.494-.677a3.962,3.962,0,0,0-.423-.028.107.107,0,0,1-.1-.1c0-.072.056-.1.2-.1.55,0,1.27.029,1.34.029s.677-.029,1.044-.029c.141,0,.2.029.2.1a.107.107,0,0,1-.1.1,1.44,1.44,0,0,0-.31.028c-.339.072-.409.274-.437.677s-.014.734-.014,2.634v1.309c0,1.324-.169,2.807-1.157,3.67a3.705,3.705,0,0,1-2.6.892,3.824,3.824,0,0,1-2.582-.863,4,4,0,0,1-1.086-3.21v-1.8Z" transform="translate(-307.419 -377.263)"/><path class="b" d="M351.347,384c.056,0,.056-.029.042-.086l-1.227-3.353q-.106-.281-.212,0l-1.157,3.353c-.014.058,0,.086.042.086Zm-1.383-5.094c.155-.4.212-.474.3-.474.127,0,.169.172.3.446.226.518,2.215,5.569,2.977,7.426.451,1.094.79,1.252,1.058,1.339a1.692,1.692,0,0,0,.494.071c.071,0,.155.029.155.1s-.141.1-.282.1c-.183,0-1.1,0-1.961-.029-.24-.015-.438-.015-.438-.087s.028-.058.085-.086a.231.231,0,0,0,.113-.331l-1.115-2.807c-.028-.058-.042-.072-.113-.072h-2.864a.131.131,0,0,0-.127.1l-.706,1.958a2.572,2.572,0,0,0-.183.82c0,.245.212.331.423.331h.113c.1,0,.127.043.127.1s-.07.1-.183.1c-.3,0-.973-.043-1.115-.043s-.748.043-1.256.043c-.155,0-.24-.029-.24-.1a.11.11,0,0,1,.113-.1,3.281,3.281,0,0,0,.367-.029c.565-.072.8-.5,1.044-1.122Z" transform="translate(-324.557 -376.83)"/><path class="b" d="M376.72,383.667a.182.182,0,0,0,.085.158,4.137,4.137,0,0,0,1.368.187,1.589,1.589,0,0,0,.931-.216,2.2,2.2,0,0,0,.748-1.871c0-1.526-.818-2.4-2.145-2.4a5.307,5.307,0,0,0-.889.072.156.156,0,0,0-.1.144v3.929Zm-1.072-1.036c0-1.9,0-2.245-.028-2.634-.028-.417-.1-.618-.508-.676a3.973,3.973,0,0,0-.423-.029.121.121,0,0,1-.1-.1c0-.072.056-.1.2-.1.564,0,1.4.029,1.467.029.127,0,1.171-.029,1.552-.029a4,4,0,0,1,2.314.533,2.156,2.156,0,0,1,.86,1.669,3.6,3.6,0,0,1-1.523,2.792c1.016,1.295,1.876,2.4,2.6,3.166a2.317,2.317,0,0,0,1.82.892.11.11,0,0,1,.113.1c0,.072-.071.1-.3.1h-.776a2.462,2.462,0,0,1-1.326-.245,6.412,6.412,0,0,1-1.693-1.8c-.521-.662-1.072-1.454-1.34-1.785a.188.188,0,0,0-.169-.072l-1.58-.029c-.056,0-.085.029-.085.1v.288c0,1.18,0,2.13.056,2.634.042.36.113.59.494.648a4.472,4.472,0,0,0,.55.058.089.089,0,0,1,.1.1c0,.057-.056.1-.2.1-.677,0-1.467-.043-1.524-.043-.014,0-.847.043-1.227.043-.127,0-.2-.029-.2-.1a.1.1,0,0,1,.1-.1,1.738,1.738,0,0,0,.38-.058c.24-.057.268-.288.325-.648a25.548,25.548,0,0,0,.07-2.648v-2.159Z" transform="translate(-343.752 -377.263)"/><path class="b" d="M401.517,384.465c0,1.18,0,2.144.056,2.649.042.359.1.59.48.648a4.726,4.726,0,0,0,.564.058.089.089,0,0,1,.1.1c0,.058-.057.1-.2.1-.677,0-1.467-.043-1.538-.043s-.917.043-1.284.043c-.141,0-.2-.029-.2-.1a.086.086,0,0,1,.1-.086,1.6,1.6,0,0,0,.367-.057c.254-.058.324-.3.367-.662.056-.5.056-1.468.056-2.649v-5.137l-1.792.029c-.776.014-1.072.1-1.256.388a1.991,1.991,0,0,0-.2.388c-.028.1-.071.115-.127.115a.1.1,0,0,1-.085-.1c0-.13.254-1.223.268-1.324.028-.072.085-.23.127-.23a4.313,4.313,0,0,0,.55.143c.353.043.833.057.974.057h4.684a6.067,6.067,0,0,0,.889-.057c.183-.028.3-.058.353-.058s.056.072.056.144c0,.374-.042,1.251-.042,1.4,0,.1-.057.158-.113.158s-.085-.043-.1-.216l-.014-.13c-.042-.374-.31-.648-1.5-.676l-1.552-.029v5.137Z" transform="translate(-358.504 -376.938)"/><path class="b" d="M426.638,387.674c1.115,0,3.358-.6,3.358-4.145,0-2.936-1.749-4.476-3.711-4.476-2.074,0-3.57,1.324-3.57,3.986C422.716,385.889,424.395,387.674,426.638,387.674Zm-.282-9.081c2.794,0,4.91,1.741,4.91,4.591a4.853,4.853,0,0,1-4.981,4.994,4.648,4.648,0,0,1-4.854-4.807,4.8,4.8,0,0,1,4.924-4.778Z" transform="translate(-374.682 -376.938)"/><path class="b" d="M468.215,387.893c0,1.06,0,1.991.012,2.179a1.923,1.923,0,0,0,.116.718c.127.189.485.4,1.686.4a3.369,3.369,0,0,0,2.379-.907,3.415,3.415,0,0,0,.8-2.38,3.505,3.505,0,0,0-.959-2.509,4.146,4.146,0,0,0-3.291-1.119,2.659,2.659,0,0,0-.612.071c-.092.035-.127.082-.127.2v3.345Zm-.924-1.084c0-1.555,0-1.838-.023-2.156-.023-.341-.081-.507-.416-.554a3.3,3.3,0,0,0-.346-.024.1.1,0,0,1-.081-.082c0-.059.047-.082.162-.082.462,0,1.12.024,1.178.024.116,0,.762-.024,1.363-.024,1.016,0,2.875-.094,4.077,1.143a3.553,3.553,0,0,1,.993,2.544,3.868,3.868,0,0,1-4.18,3.97c-.439,0-.982-.035-1.421-.058s-.785-.059-.832-.059c-.023,0-.208.011-.416.011s-.45.023-.612.023c-.1,0-.162-.023-.162-.082a.079.079,0,0,1,.081-.082,1.428,1.428,0,0,0,.312-.047c.2-.047.219-.236.265-.53a20.718,20.718,0,0,0,.058-2.167Z" transform="translate(-404.391 -380.412)"/><path class="b" d="M493.465,386.656c0-1.555,0-1.838-.023-2.156-.023-.341-.081-.507-.416-.554a3.117,3.117,0,0,0-.347-.024.1.1,0,0,1-.081-.082c0-.059.046-.082.162-.082.462,0,1.12.024,1.178.024s2.195.011,2.425,0c.2-.012.381-.047.462-.059.047-.012.092-.048.139-.048s.046.048.046.095c0,.071-.058.189-.081.471-.011.094-.035.542-.058.66-.012.047-.047.106-.092.106s-.081-.047-.081-.13a1.107,1.107,0,0,0-.058-.353c-.069-.165-.173-.236-.728-.306-.173-.023-1.351-.036-1.466-.036-.046,0-.058.036-.058.106v2.721c0,.07,0,.106.058.106.127,0,1.466,0,1.7-.023s.393-.036.5-.141c.069-.071.116-.13.15-.13s.058.024.058.082a5.549,5.549,0,0,0-.081.554c-.023.2-.046.577-.046.648s-.023.188-.092.188c-.047,0-.069-.036-.069-.094a.9.9,0,0,0-.047-.33c-.035-.141-.127-.259-.519-.307-.277-.035-1.363-.047-1.536-.047-.058,0-.069.036-.069.071v.836c0,.341-.012,1.508,0,1.708.023.672.208.8,1.212.8a3.321,3.321,0,0,0,1.016-.106.761.761,0,0,0,.462-.7c.023-.118.046-.153.1-.153s.069.082.069.153a8.419,8.419,0,0,1-.138.965c-.069.26-.174.26-.566.26-.762,0-1.351-.024-1.767-.035s-.693-.023-.843-.023c-.023,0-.219,0-.439.011-.2.012-.427.023-.589.023-.1,0-.161-.023-.161-.082a.079.079,0,0,1,.08-.082,2.848,2.848,0,0,0,.312-.047c.2-.036.219-.236.266-.53a20.833,20.833,0,0,0,.058-2.167v-1.767Z" transform="translate(-421.673 -380.259)"/><path class="b" d="M534.221,383.04c.056.518.155,1.324.762,1.525a3.008,3.008,0,0,0,.917.129c.071,0,.113.015.113.072,0,.086-.127.13-.3.13-.31,0-1.834-.043-2.357-.087-.324-.029-.395-.072-.395-.144s.028-.087.1-.1.085-.259.056-.518l-.677-7.426H532.4l-3.457,7.483c-.3.633-.339.763-.465.763-.1,0-.169-.144-.437-.662-.367-.705-1.58-3.195-1.651-3.339-.127-.259-1.707-3.713-1.862-4.1h-.056l-.565,6.678c-.014.23-.014.489-.014.734a.458.458,0,0,0,.367.446,2.525,2.525,0,0,0,.536.072c.056,0,.113.029.113.072,0,.1-.085.13-.254.13-.522,0-1.2-.043-1.312-.043s-.8.043-1.185.043c-.141,0-.24-.029-.24-.13,0-.043.07-.072.141-.072a1.8,1.8,0,0,0,.423-.043c.465-.087.508-.648.564-1.195l1.016-9.383c.014-.158.071-.259.155-.259s.141.058.212.216l4.318,9.052,4.148-9.038c.056-.13.113-.23.211-.23s.141.115.169.388Z" transform="translate(-441.033 -373.815)"/><path class="b" d="M568.009,384.79c0,1.18,0,2.144.056,2.649.042.359.085.59.451.648a5.036,5.036,0,0,0,.564.057.1.1,0,0,1,.1.1c0,.058-.056.1-.2.1-.691,0-1.5-.043-1.552-.043s-.846.043-1.227.043c-.127,0-.2-.029-.2-.1a.1.1,0,0,1,.1-.1,1.765,1.765,0,0,0,.381-.057c.24-.058.282-.288.325-.648.056-.5.07-1.468.07-2.649v-2.158c0-1.9,0-2.245-.028-2.634-.028-.417-.127-.6-.4-.662a2.182,2.182,0,0,0-.381-.043.107.107,0,0,1-.1-.1c0-.072.056-.1.2-.1.409,0,1.185.029,1.256.029s.86-.029,1.242-.029c.141,0,.2.029.2.1a.121.121,0,0,1-.1.1,1.342,1.342,0,0,0-.31.029c-.339.072-.409.245-.437.676-.014.389-.014.734-.014,2.634Z" transform="translate(-470.125 -377.263)"/><path class="b" d="M581.786,384.818c0,1.8.028,2.533.254,2.749.2.2.677.288,1.651.288.649,0,1.2-.015,1.5-.374a1.518,1.518,0,0,0,.3-.691c.014-.086.056-.159.127-.159s.085.058.085.187a7.865,7.865,0,0,1-.183,1.223c-.085.288-.127.331-.79.331-.889,0-1.58-.015-2.158-.043s-.988-.028-1.354-.028c-.056,0-.268,0-.508.014s-.522.029-.719.029c-.127,0-.2-.029-.2-.1a.1.1,0,0,1,.1-.1,1.765,1.765,0,0,0,.381-.057c.24-.058.268-.288.325-.648a25.527,25.527,0,0,0,.07-2.649v-2.158c0-1.9,0-2.245-.028-2.634-.028-.417-.1-.618-.508-.676a3.885,3.885,0,0,0-.423-.029.121.121,0,0,1-.1-.1c0-.072.056-.1.2-.1.564,0,1.34.029,1.411.029s.987-.029,1.369-.029c.127,0,.2.029.2.1a.107.107,0,0,1-.1.086c-.085,0-.268.014-.409.029-.367.072-.437.259-.466.691-.014.389-.014.734-.014,2.634v2.187Z" transform="translate(-479.12 -377.263)"/><path class="b" d="M609.2,384.79c0,1.18.014,2.144.07,2.649.042.359.071.59.451.648a4.833,4.833,0,0,0,.55.057.1.1,0,0,1,.113.1c0,.058-.07.1-.212.1-.677,0-1.467-.043-1.538-.043s-.86.043-1.227.043c-.141,0-.2-.029-.2-.1a.1.1,0,0,1,.1-.1,1.64,1.64,0,0,0,.367-.057c.254-.058.3-.3.339-.662.056-.5.056-1.425.056-2.606V383.6c0-.057-.028-.071-.071-.071h-5.178c-.042,0-.071.014-.071.071v1.223c0,1.18,0,2.115.056,2.62.042.359.085.59.451.648a5.038,5.038,0,0,0,.564.057.1.1,0,0,1,.1.1c0,.058-.056.1-.2.1-.691,0-1.481-.043-1.538-.043s-.86.043-1.241.043c-.127,0-.2-.029-.2-.1a.1.1,0,0,1,.1-.1,1.764,1.764,0,0,0,.381-.057c.24-.058.268-.288.325-.648a25.549,25.549,0,0,0,.07-2.649v-2.158c0-1.9,0-2.245-.029-2.634-.028-.417-.1-.618-.508-.676a3.885,3.885,0,0,0-.423-.029.121.121,0,0,1-.1-.1c0-.072.056-.1.2-.1.564,0,1.354.029,1.425.029s.847-.029,1.228-.029c.141,0,.2.029.2.1a.121.121,0,0,1-.1.1,1.342,1.342,0,0,0-.31.029c-.339.072-.409.245-.438.676-.014.389-.014.763-.014,2.663v.258c0,.072.028.072.071.072h5.178c.042,0,.071,0,.071-.072v-.258c0-1.9-.014-2.274-.028-2.663-.028-.417-.085-.618-.494-.676a3.873,3.873,0,0,0-.423-.029.107.107,0,0,1-.1-.1c0-.072.056-.1.2-.1.55,0,1.354.029,1.411.029s.861-.029,1.228-.029c.141,0,.212.029.212.1a.122.122,0,0,1-.113.1,1.4,1.4,0,0,0-.31.029c-.325.072-.4.245-.423.676-.028.389-.028.734-.028,2.634Z" transform="translate(-492.967 -377.263)"/><path class="b" d="M635.922,384c.056,0,.056-.029.042-.086l-1.227-3.353q-.106-.281-.212,0l-1.157,3.353c-.014.058,0,.086.042.086Zm-1.383-5.094c.155-.4.211-.474.3-.474.127,0,.169.172.3.446.226.518,2.215,5.569,2.977,7.426.451,1.094.79,1.252,1.058,1.339a1.691,1.691,0,0,0,.494.071c.071,0,.155.029.155.1s-.141.1-.282.1c-.183,0-1.1,0-1.961-.029-.24-.015-.437-.015-.437-.087s.028-.058.085-.086a.231.231,0,0,0,.113-.331l-1.115-2.807c-.028-.058-.042-.072-.113-.072h-2.865a.131.131,0,0,0-.127.1l-.706,1.958a2.572,2.572,0,0,0-.183.82c0,.245.212.331.423.331h.113c.1,0,.127.043.127.1s-.07.1-.183.1c-.3,0-.973-.043-1.114-.043s-.748.043-1.256.043c-.155,0-.24-.029-.24-.1a.11.11,0,0,1,.113-.1,3.281,3.281,0,0,0,.367-.029c.564-.072.8-.5,1.044-1.122Z" transform="translate(-512.462 -376.83)"/></g></svg>